<?xml version="1.0" standalone="no"?>
<!DOCTYPE svg PUBLIC "-//W3C//DTD SVG 1.1//EN" "http://www.w3.org/Graphics/SVG/1.1/DTD/svg11.dtd" >
<svg xmlns="http://www.w3.org/2000/svg" xmlns:xlink="http://www.w3.org/1999/xlink" version="1.1">
<metadata>
Created by FontForge 20170731 at Fri Oct 12 18:38:13 2018
 By Aleksey,,,
Learn Share Colaborate (c) 7NTypes. 2018. All Rights Reserved
</metadata>
<defs>
<font id="LearnShareColaborate" horiz-adv-x="0" >
  <font-face 
    font-family="Learn Share Colaborate"
    font-weight="400"
    font-stretch="normal"
    units-per-em="2048"
    panose-1="2 0 5 0 0 0 0 0 0 0"
    ascent="1638"
    descent="-410"
    x-height="968"
    cap-height="1282"
    bbox="-1067 -463 2108 1632"
    underline-thickness="150"
    underline-position="-592"
    unicode-range="U+001D-E007"
  />
<missing-glyph horiz-adv-x="1024" 
 />
    <glyph glyph-name=".notdef" horiz-adv-x="1024" 
 />
    <glyph glyph-name="uni0000" 
 />
    <glyph glyph-name="uni0000" 
 />
    <glyph glyph-name="nonmarkingreturn" horiz-adv-x="682" 
 />
    <glyph glyph-name="space" unicode=" " horiz-adv-x="508" 
 />
    <glyph glyph-name="space" unicode="&#xa0;" horiz-adv-x="508" 
 />
    <glyph glyph-name="exclam" unicode="!" horiz-adv-x="477" 
d="M328 193v-193h-194v193h194zM335 1282l-48 -962h-108l-52 962h208z" />
    <glyph glyph-name="quotedbl" unicode="&#x22;" horiz-adv-x="515" 
d="M215 1282l-42 -419h-102l-47 419h191zM485 1282l-42 -419h-102l-47 419h191z" />
    <glyph glyph-name="numbersign" unicode="#" horiz-adv-x="1151" 
d="M792 368l-77 -368h-140l77 368h-292l-77 -368h-140l77 368h-194v127h221l61 291h-195v127h221l77 369h141l-78 -369h292l77 369h140l-77 -369h195v-127h-221l-61 -291h194v-127h-221zM387 495h291l62 291h-292z" />
    <glyph glyph-name="dollar" unicode="$" horiz-adv-x="1023" 
d="M551 -18v-182h-127v180q-198 14 -371 109l74 128q94 -48 170 -70q83 -23 189 -23q126 0 205 51q80 53 80 155q0 58 -45 106q-64 68 -243 136q-98 38 -165 71q-64 31 -120 78q-53 45 -80.5 108.5t-27.5 133.5q0 153 103 243q94 81 231 94v139h127v-138q186 -13 370 -109
l-73 -128q-187 94 -366 94q-91 0 -155 -45q-63 -43 -63 -134q0 -95 71 -148q66 -48 227 -110q86 -34 163 -74q83 -42 141 -108q80 -92 80 -198q0 -97 -39 -164q-77 -131 -256 -177q-49 -13 -100 -18z" />
    <glyph glyph-name="percent" unicode="%" horiz-adv-x="1182" 
d="M1010 1282l-720 -1282h-139l721 1282h138zM302 826q72 0 102 68q23 52 23 125q0 74 -23 125q-30 68 -102 68q-73 0 -103 -68q-23 -51 -23 -125q0 -73 23 -125q30 -68 103 -68zM859 69q73 0 103 68q22 48 22 125q0 75 -22 125q-30 67 -103 67t-103 -67q-22 -50 -22 -125
q0 -77 22 -125q30 -68 103 -68zM859 -23q-67 0 -116.5 23.5t-78 64t-42.5 90t-14 107.5t14 107.5t42.5 90t78 63.5t116.5 23t116.5 -23t78 -63.5t42.5 -90t14 -107.5t-14 -107.5t-42.5 -90t-78 -64t-116.5 -23.5zM302 735q-130 0 -191 80.5t-61 203.5t61 203.5t191 80.5
q67 0 116.5 -23t78 -63.5t42.5 -90t14 -107.5t-14 -107.5t-42.5 -90t-78 -63.5t-116.5 -23z" />
    <glyph glyph-name="ampersand" unicode="&#x26;" horiz-adv-x="1163" 
d="M448 704q82 62 136.5 148t54.5 176q0 67 -44.5 99t-106.5 32q-65 0 -103 -29q-59 -47 -59 -146q0 -137 122 -280zM382 -23q-139 0 -229.5 81.5t-90.5 199.5q0 59 20.5 112t60.5 98t79.5 78t96.5 72q-154 187 -154 361q0 128 73 219q83 104 259 104q73 0 138 -27
q72 -30 115 -94.5t43 -154.5q0 -124 -69.5 -234.5t-183.5 -188.5q125 -127 270 -227q96 109 162 203l123 -78q-66 -92 -161 -205q96 -58 209 -113l-83 -137q-116 47 -243 127q-205 -196 -435 -196zM398 124q139 0 295 135q-150 113 -281 254q-74 -49 -126 -113.5t-52 -134.5
q0 -59 45 -100q46 -41 119 -41z" />
    <glyph glyph-name="quotesingle" unicode="'" horiz-adv-x="246" 
d="M216 1282l-42 -419h-103l-46 419h191z" />
    <glyph glyph-name="parenleft" unicode="(" horiz-adv-x="541" 
d="M489 -225l-86 -58q-135 187 -216 414q-80 228 -80 460q0 230 80 458q81 228 216 416l86 -59q-104 -182 -159 -395q-54 -213 -54 -420t54 -421q55 -213 159 -395z" />
    <glyph glyph-name="parenright" unicode=")" horiz-adv-x="537" 
d="M111 -283l-86 58q105 182 159 395q55 213 55 421q0 209 -55 420q-54 213 -159 395l86 59q136 -189 216 -416q80 -228 80 -458q0 -232 -80 -460q-79 -227 -216 -414z" />
    <glyph glyph-name="asterisk" unicode="*" horiz-adv-x="468" 
d="M215 1027l-71 -163l-106 76l136 117l34 2zM429 940l-106 -76l-71 163l7 32l34 -2zM488 1108l-190 -18l-29 16l12 30l168 97zM256 1171l-26 -22l-25 22l-39 164h131zM198 1106l-29 -16l-190 18l39 125l168 -97z" />
    <glyph glyph-name="plus" unicode="+" horiz-adv-x="904" 
d="M501 1092v-389h389v-126h-389v-389h-127v389h-389v126h389v389h127z" />
    <glyph glyph-name="comma" unicode="," horiz-adv-x="284" 
d="M109 0h-59v193h194v-136q0 -141 -99 -383l-95 43q52 138 59 283z" />
    <glyph glyph-name="hyphen" unicode="-" horiz-adv-x="608" 
d="M589 547v-126h-620v126h620z" />
    <glyph glyph-name="hyphen" unicode="&#xad;" horiz-adv-x="608" 
d="M589 547v-126h-620v126h620z" />
    <glyph glyph-name="period" unicode="." horiz-adv-x="267" 
d="M243 193v-193h-193v193h193z" />
    <glyph glyph-name="slash" unicode="/" horiz-adv-x="705" 
d="M747 1282l-619 -1282h-145l619 1282h145z" />
    <glyph glyph-name="zero" unicode="0" horiz-adv-x="1033" 
d="M544 123q147 0 221 129q80 139 80 388q0 372 -167 482q-54 36 -134 36q-146 0 -221 -129q-79 -137 -79 -389q0 -373 166 -482q55 -35 134 -35zM544 -23q-109 0 -193.5 42.5t-135 108.5t-83 157t-44.5 177t-12 178q0 93 12 179t44.5 176.5t83 156.5t135 108.5t193.5 42.5
q79 0 145 -22t113.5 -59.5t85 -90.5t60.5 -111t38 -125t21 -129t6 -126t-6 -126t-21 -129t-38 -125t-60.5 -111t-85 -90.5t-113.5 -59.5t-145 -22z" />
    <glyph glyph-name="one" unicode="1" horiz-adv-x="1032" 
d="M949 140v-140h-796v140h314v955l-244 -141l-70 122l356 206h126v-1142h314z" />
    <glyph glyph-name="two" unicode="2" horiz-adv-x="1033" 
d="M944 140v-140h-870v98q0 125 115 244q79 82 250 204q159 114 229 185q102 103 102 206q0 106 -76 163.5t-193 57.5q-167 0 -354 -94l-73 128q101 53 217 82q114 29 210 29q184 1 314 -98.5t129 -267.5q0 -211 -277 -421q-46 -35 -116.5 -85t-113.5 -81.5t-88.5 -69.5
t-69 -72.5t-27.5 -67.5h692z" />
    <glyph glyph-name="three" unicode="3" horiz-adv-x="1033" 
d="M461 -23q-213 0 -428 112l74 127q187 -93 361 -93q56 0 106.5 12.5t93.5 37t68.5 68.5t24.5 103q0 108 -121 178q-108 61 -219 61h-87v122h87q117 0 209 56q105 65 105 176q0 106 -78.5 163.5t-195.5 57.5q-156 -2 -325 -80l-74 128q207 95 399 97q118 1 218 -41
t163 -127t61 -198q0 -191 -215 -290q108 -46 175 -123t67 -180q0 -176 -145 -275q-134 -92 -324 -92z" />
    <glyph glyph-name="four" unicode="4" horiz-adv-x="1033" 
d="M804 300v-300h-169v300h-609v87l582 895h196v-849h168v-133h-168zM234 433h401v618z" />
    <glyph glyph-name="five" unicode="5" horiz-adv-x="1033" 
d="M484 -23q-213 0 -428 112l74 127q188 -93 354 -93q146 1 222 81q78 80 78 212q0 134 -78 213q-78 81 -222 81q-177 0 -286 -103q-62 28 -93 43l123 632h724v-141h-587l-65 -311q88 25 184 25q207 0 337.5 -122t130.5 -317q2 -192 -130.5 -316t-337.5 -123z" />
    <glyph glyph-name="six" unicode="6" horiz-adv-x="1033" 
d="M535 123q144 0 222 80q79 80 79 213q0 134 -79 213q-78 81 -222 81t-222 -81q-78 -79 -78 -213q0 -132 78 -213q78 -80 222 -80zM535 -23q-206 -1 -338 123t-130 316q0 108 40 195q70 146 206 354l207 317h192l-295 -449q60 22 118 22q208 0 338.5 -122t130.5 -317
q2 -192 -130 -316t-339 -123z" />
    <glyph glyph-name="seven" unicode="7" horiz-adv-x="1033" 
d="M919 1194l-464 -1194h-179l444 1141h-636v141h835v-88z" />
    <glyph glyph-name="eight" unicode="8" horiz-adv-x="1034" 
d="M544 123q59 0 110.5 12.5t96 37t70 68.5t24.5 103q0 101 -117 170q-102 62 -219 69q-98 -30 -174 -86q-91 -67 -91 -153q-1 -59 24 -103t69.5 -68.5t96.5 -37t110 -12.5zM579 705q104 28 172 84.5t68 147.5q0 106 -79.5 163.5t-195.5 57.5q-117 0 -195.5 -57.5
t-78.5 -163.5q0 -105 102 -168q90 -57 207 -64zM544 -23q-192 0 -323 91q-146 101 -146 276q0 103 67 180t175 123q-215 99 -215 290q-2 113 61 198t163 127t218 41q117 1 217.5 -41t164 -127.5t61.5 -197.5q0 -98 -58 -171t-158 -119q108 -46 175 -123t67 -180
q0 -176 -145 -276q-133 -91 -324 -91z" />
    <glyph glyph-name="nine" unicode="9" horiz-adv-x="1034" 
d="M534 1159q-144 0 -222 -81q-78 -79 -78 -212t78 -214q78 -80 222 -80t222 80q78 81 78 214t-78 212q-78 81 -222 81zM534 1305q207 1 339 -123t130 -316q0 -105 -41 -195q-65 -137 -206 -354l-207 -317h-191l294 449q-60 -22 -118 -22q-206 -2 -338.5 122t-130.5 317
q-1 126 58.5 227t167.5 157t243 55z" />
    <glyph glyph-name="colon" unicode=":" horiz-adv-x="391" 
d="M294 193v-193h-194v193h194zM294 940v-193h-194v193h194z" />
    <glyph glyph-name="semicolon" unicode=";" horiz-adv-x="391" 
d="M285 940v-193h-194v193h194zM150 0h-59v193h194v-136q0 -141 -99 -383l-95 43q52 138 59 283z" />
    <glyph glyph-name="semicolon" unicode="&#x37e;" horiz-adv-x="391" 
d="M285 940v-193h-194v193h194zM150 0h-59v193h194v-136q0 -141 -99 -383l-95 43q52 138 59 283z" />
    <glyph glyph-name="less" unicode="&#x3c;" horiz-adv-x="989" 
d="M895 381v-143l-905 335v137l905 332v-145l-717 -256z" />
    <glyph glyph-name="equal" unicode="=" horiz-adv-x="1057" 
d="M971 501v-127h-905v127h905zM971 906v-127h-905v127h905z" />
    <glyph glyph-name="greater" unicode="&#x3e;" horiz-adv-x="1012" 
d="M974 573l-905 -335v143l717 260l-717 256v145l905 -332v-137z" />
    <glyph glyph-name="question" unicode="?" horiz-adv-x="871" 
d="M421 193v-193h-193v193h193zM387 444l-6 -124h-108l-12 224l48 31q161 101 229 165q102 94 102 197q0 106 -76 163.5t-193 57.5q-167 0 -354 -94l-73 128q216 111 427 111q184 1 314 -98.5t129 -267.5q0 -155 -141 -288q-94 -88 -286 -205z" />
    <glyph glyph-name="at" unicode="@" horiz-adv-x="1679" 
d="M814 178q58 -2 113.5 45t87.5 117.5t31 137.5v203q-78 106 -211 106q-105 0 -165 -103q-48 -82 -48 -201q0 -125 41 -209q49 -96 151 -96zM878 -325q-232 -1 -411 98.5t-277.5 284t-96.5 424.5q0 179 59 332t160 257t236.5 162t286.5 58q182 0 326 -52t234 -143t137 -209
t47 -255q0 -140 -40 -266t-111.5 -204.5t-156.5 -78.5q-84 0 -128.5 47t-64.5 135q-38 -88 -111.5 -136.5t-160.5 -48.5q-152 0 -229 114q-76 115 -76 289q0 182 95.5 293t238.5 111q72 0 133.5 -26.5t98.5 -69.5l17 86h83v-406q0 -296 104 -296q51 -2 98 63.5t75.5 172.5
t27.5 221q0 248 -159 399q-167 160 -478 160q-130 0 -246.5 -51t-203 -141.5t-137.5 -224.5t-51 -291q-2 -319 189 -515t492 -194q164 0 289 66l49 -85q-148 -80 -338 -80z" />
    <glyph glyph-name="A" unicode="A" horiz-adv-x="1175" 
d="M354 491h450l-225 622zM688 1282l477 -1282h-183l-127 350h-551l-127 -350h-173l477 1282h207z" />
    <glyph glyph-name="B" unicode="B" horiz-adv-x="1219" 
d="M685 0h-515v1282h479q149 0 261 -74q159 -106 159 -282q0 -162 -135 -268q85 -49 131.5 -126t46.5 -172q0 -178 -162 -285q-113 -75 -265 -75zM343 140h342q103 0 178 59t75 161q0 101 -74.5 157.5t-178.5 56.5h-342v-434zM343 715h306q101 0 173.5 55.5t72.5 155.5
q0 99 -73 157.5t-173 58.5h-306v-427z" />
    <glyph glyph-name="C" unicode="C" horiz-adv-x="1160" 
d="M692 -21q-297 0 -472 201q-157 185 -157 461t157 461q175 201 472 201q219 0 428 -111l-74 -128q-94 49 -171 70q-79 24 -183 24q-224 0 -354 -175q-101 -142 -101 -342t101 -342q130 -175 354 -175q102 0 183 23q79 23 171 71l74 -128q-209 -111 -428 -111z" />
    <glyph glyph-name="D" unicode="D" horiz-adv-x="1365" 
d="M628 0h-458v1282h458q296 0 472 -195q157 -179 157 -446t-157 -446q-176 -195 -472 -195zM344 140h284q105 -1 192 39t144 109t88 160t31 193t-31 193t-88 160t-144 109t-192 39h-284v-1002z" />
    <glyph glyph-name="E" unicode="E" horiz-adv-x="1077" 
d="M990 140v-140h-820v1282h820v-140h-646v-425h599v-141h-599v-436h646z" />
    <glyph glyph-name="F" unicode="F" horiz-adv-x="1020" 
d="M343 576v-576h-173v1282h809v-140h-636v-425h589v-141h-589z" />
    <glyph glyph-name="G" unicode="G" horiz-adv-x="1310" 
d="M695 -21q-298 0 -473 201q-156 186 -156 461t156 461q175 201 473 201q219 0 428 -111l-74 -128q-94 49 -171 70q-80 24 -183 24q-223 0 -355 -175q-100 -140 -100 -342t100 -342q132 -175 355 -175q191 0 334 87v365h-351v141h505v-582q-96 -78 -232 -118
q-135 -38 -256 -38z" />
    <glyph glyph-name="H" unicode="H" horiz-adv-x="1396" 
d="M1183 1282v-1282h-174v576h-665v-576h-174v1282h174v-565h665v565h174z" />
    <glyph glyph-name="I" unicode="I" horiz-adv-x="557" 
d="M344 1282v-1282h-174v1282h174z" />
    <glyph glyph-name="J" unicode="J" horiz-adv-x="668" 
d="M129 -21q-71 0 -135 21l37 138q54 -14 98 -14q94 0 136.5 59t42.5 151v948h174v-937q0 -163 -91.5 -264.5t-261.5 -101.5z" />
    <glyph glyph-name="K" unicode="K" horiz-adv-x="1190" 
d="M637 647l556 -647h-211l-496 576h-142v-576h-174v1282h174v-565h152l486 565h202z" />
    <glyph glyph-name="L" unicode="L" horiz-adv-x="949" 
d="M933 140v-140h-763v1282h174v-1142h589z" />
    <glyph glyph-name="M" unicode="M" horiz-adv-x="1653" 
d="M1442 1282v-1282h-169v1014l-467 -713l-467 713v-1014h-169v1282h170l466 -711l465 711h171z" />
    <glyph glyph-name="N" unicode="N" horiz-adv-x="1387" 
d="M1174 1282v-1282h-171l-664 1004v-1004h-169v1282h171l664 -1004v1004h169z" />
    <glyph glyph-name="O" unicode="O" horiz-adv-x="1429" 
d="M692 124q228 0 354 175q101 143 101 342t-101 342q-126 175 -354 175t-354 -175q-101 -143 -101 -342t101 -342q126 -175 354 -175zM692 -21q-299 0 -471 202q-158 185 -158 460t158 460q172 202 471 202t471 -202q158 -185 158 -460t-158 -460q-172 -202 -471 -202z" />
    <glyph glyph-name="P" unicode="P" horiz-adv-x="1137" 
d="M344 710h305q100 0 173 57.5t73 158.5q0 99 -73 157.5t-173 58.5h-305v-432zM344 569v-569h-174v1282h479q149 0 261 -74q159 -106 159 -282t-159 -282q-111 -75 -261 -75h-305z" />
    <glyph glyph-name="Q" unicode="Q" horiz-adv-x="1454" 
d="M692 124q167 0 291 104l-179 209l122 103l157 -182q64 124 64 283q0 199 -101 342q-126 175 -354 175t-354 -175q-101 -143 -101 -342t101 -342q126 -175 354 -175zM1321 81l-123 -102l-110 128q-164 -128 -396 -128q-299 0 -471 202q-158 185 -158 460t158 460
q172 202 471 202t471 -202q158 -185 158 -460q0 -241 -123 -417z" />
    <glyph glyph-name="R" unicode="R" horiz-adv-x="1179" 
d="M344 710h305q101 0 174 57.5t73 158.5q0 99 -73 157.5t-174 58.5h-305v-432zM773 583l345 -583h-186l-337 569h-251v-569h-174v1282h479q150 0 262 -74q159 -106 159 -282q0 -177 -159 -283q-63 -43 -138 -60z" />
    <glyph glyph-name="S" unicode="S" horiz-adv-x="1042" 
d="M491 -22q-228 1 -428 111l74 128q94 -48 170 -70q83 -23 189 -23q126 0 205 51q80 53 80 155q0 58 -45 106q-64 68 -243 136q-98 38 -165 71q-64 31 -120 78q-53 45 -80.5 108.5t-27.5 133.5q0 153 103 243q112 97 294 97q223 0 434 -111l-73 -128q-187 94 -366 94
q-91 0 -155 -45q-63 -43 -63 -134q0 -95 72 -148q64 -48 226 -110q86 -34 163 -74q83 -42 141 -108q80 -92 80 -198q0 -97 -39 -164q-77 -131 -256 -177q-82 -22 -170 -22z" />
    <glyph glyph-name="T" unicode="T" horiz-adv-x="929" 
d="M608 1132v-1132h-174v1132h-378v150h929v-150h-377z" />
    <glyph glyph-name="U" unicode="U" horiz-adv-x="1328" 
d="M648 -21q-241 0 -383 163q-127 151 -127 373v767h174v-767q0 -149 74 -256q94 -130 262 -130t261 130q74 107 74 256v767h174v-767q0 -222 -127 -373q-142 -163 -382 -163z" />
    <glyph glyph-name="V" unicode="V" horiz-adv-x="1172" 
d="M1184 1282l-477 -1282h-207l-477 1282h183l403 -1112l402 1112h173z" />
    <glyph glyph-name="W" unicode="W" horiz-adv-x="1740" 
d="M1719 1282l-352 -1282h-189l-294 1095l-295 -1095h-189l-352 1282h178l277 -1061l288 1061h195l288 -1061l278 1061h167z" />
    <glyph glyph-name="X" unicode="X" horiz-adv-x="1160" 
d="M689 648l451 -648h-206l-345 509l-361 -509h-196l464 646l-456 636h206l349 -499l348 499h197z" />
    <glyph glyph-name="Y" unicode="Y" horiz-adv-x="1037" 
d="M641 543v-543h-174v543l-468 739h206l354 -594l353 594h197z" />
    <glyph glyph-name="Z" unicode="Z" horiz-adv-x="1084" 
d="M1034 140v-140h-945v98l702 1044h-702v140h945v-98l-702 -1044h702z" />
    <glyph glyph-name="bracketleft" unicode="[" horiz-adv-x="636" 
d="M486 -273h-336v1728h336v-141h-168v-1447h168v-140z" />
    <glyph glyph-name="backslash" unicode="\" horiz-adv-x="738" 
d="M738 0h-145l-619 1282h145z" />
    <glyph glyph-name="bracketright" unicode="]" horiz-adv-x="636" 
d="M486 1455v-1728h-336v140h168v1447h-168v141h336z" />
    <glyph glyph-name="asciicircum" unicode="^" horiz-adv-x="1032" 
d="M597 1282l285 -603h-166l-201 452l-195 -452h-170l284 603h163z" />
    <glyph glyph-name="underscore" unicode="_" horiz-adv-x="1205" 
d="M1055 -160v-127h-905v127h905z" />
    <glyph glyph-name="grave" unicode="`" horiz-adv-x="597" 
d="M355 1276l92 -188h-138l-159 188h205z" />
    <glyph glyph-name="a" unicode="a" horiz-adv-x="1053" 
d="M402 118q126 -2 219.5 95.5t91.5 218.5q-147 50 -286 50q-85 0 -140 -49q-56 -48 -56 -133q0 -86 44 -134t127 -48zM1005 107l-23 -127q-91 0 -158.5 43.5t-94.5 128.5q-64 -84 -154.5 -128t-187.5 -44q-146 0 -235 85q-90 86 -90 235q-2 97 50.5 171.5t135.5 112
t179 37.5q134 0 286 -61v90q0 54 -21.5 94.5t-59.5 63t-84 33.5t-99 11q-82 0 -148 -17q-62 -16 -134 -48l-48 130q84 35 160 53t178 18q176 0 294 -80q131 -89 131 -258v-395q0 -94 58 -125q28 -16 65 -23z" />
    <glyph glyph-name="b" unicode="b" horiz-adv-x="1195" 
d="M640 118q144 0 225 130q72 114 72 266q0 139 -61 230q-70 106 -205 106q-94 0 -177.5 -50.5t-147.5 -128.5v-415q122 -138 294 -138zM640 -20q-171 0 -308 128l-28 -108h-126v1282h168v-439q154 145 325 145q137 1 237 -63t148.5 -170.5t48.5 -240.5q0 -143 -53.5 -263
t-161 -195.5t-250.5 -75.5z" />
    <glyph glyph-name="c" unicode="c" horiz-adv-x="896" 
d="M524 -20q-221 0 -348 154q-117 141 -117 350t117 350q127 154 348 154q155 0 305 -72l-47 -130q-58 28 -124 47q-60 17 -134 17q-147 0 -230 -125q-67 -100 -67 -241t67 -241q83 -125 230 -125q77 0 134 16q61 17 124 48l47 -130q-150 -72 -305 -72z" />
    <glyph glyph-name="d" unicode="d" horiz-adv-x="1185" 
d="M499 -20q-104 -1 -187.5 35.5t-137 101.5t-82 151t-28.5 186q0 143 53.5 263t161 195.5t250.5 75.5q164 0 294 -115v409h168v-1282h-126l-34 132q-81 -73 -160 -112.5t-172 -39.5zM499 118q90 0 175 50.5t149 128.5v415q-121 138 -294 138q-144 0 -225 -130
q-72 -114 -72 -266q0 -138 62 -230q69 -106 205 -106z" />
    <glyph glyph-name="e" unicode="e" horiz-adv-x="980" 
d="M243 547h489q0 303 -229 303q-125 0 -195 -97q-62 -86 -65 -206zM536 -20q-225 0 -345 136t-120 368q0 208 102 348q115 156 330 156q197 0 296 -131q87 -117 87 -305q0 -68 -12 -131h-631q14 -143 85.5 -223t207.5 -80q77 0 134 16q61 17 124 48l47 -130
q-150 -72 -305 -72z" />
    <glyph glyph-name="f" unicode="f" horiz-adv-x="622" 
d="M366 841v-841h-168v841h-127v127h127v41q0 294 282 294q58 0 117 -15l-23 -127q-40 8 -76 8q-132 0 -132 -141v-60h169v-127h-169z" />
    <glyph glyph-name="g" unicode="g" horiz-adv-x="1117" 
d="M485 194q80 0 157 32.5t128 91.5v392q-117 139 -265 139q-130 0 -203 -112q-64 -100 -64 -236q0 -63 13 -116.5t41 -98t77 -69t116 -23.5zM474 -385q-157 0 -306 73l48 130q69 -34 126.5 -49t131.5 -15q147 0 231 124q65 101 65 242v54q-57 -49 -139 -84
q-81 -35 -156 -35q-196 0 -300 122t-104 324q0 204 114 342q120 145 320 145q141 0 278 -125l30 105h126v-848q0 -208 -116 -351q-130 -154 -349 -154z" />
    <glyph glyph-name="h" unicode="h" horiz-adv-x="1155" 
d="M993 650v-650h-168v650q0 91 -46 145.5t-135 54.5q-163 0 -309 -179v-671h-168v1282h168v-459q138 165 324 165q157 0 245 -91q89 -91 89 -247z" />
    <glyph glyph-name="i" unicode="i" horiz-adv-x="513" 
d="M338 968v-968h-168v968h168zM338 1263v-168h-168v168h168z" />
    <glyph glyph-name="j" unicode="j" horiz-adv-x="514" 
d="M36 -385q-59 2 -113 16l23 127q40 -8 75 -8q132 0 132 141v1077h169v-1059q0 -294 -286 -294zM322 1263v-168h-169v168h169z" />
    <glyph glyph-name="k" unicode="k" horiz-adv-x="1019" 
d="M578 552l426 -552h-194l-378 488h-97v-488h-168v1282h168v-667h101l337 353h203z" />
    <glyph glyph-name="l" unicode="l" horiz-adv-x="564" 
d="M411 -21q-128 0 -191.5 72t-63.5 222v1009h168v-1027q0 -67 28 -104t82 -37q45 0 89 10l22 -124q-73 -19 -134 -21z" />
    <glyph glyph-name="m" unicode="m" horiz-adv-x="1660" 
d="M1503 650v-650h-168v650q0 86 -41 143t-125 57q-141 0 -255 -138v-712h-169v650q0 118 -69 172q-35 28 -96 28q-152 0 -256 -138v-712h-168v968h126l28 -108q122 128 277 128q89 0 162.5 -38t117.5 -111q137 149 309 149q152 0 239.5 -94.5t87.5 -243.5z" />
    <glyph glyph-name="n" unicode="n" horiz-adv-x="1137" 
d="M983 650v-650h-168v650q0 88 -53 144t-144 56q-174 0 -294 -138v-712h-168v968h126l28 -108q137 128 308 128q161 0 263 -91.5t102 -246.5z" />
    <glyph glyph-name="o" unicode="o" horiz-adv-x="1085" 
d="M534 118q147 0 231 124q66 100 66 242t-66 242q-84 124 -231 124t-231 -124q-65 -101 -65 -242t65 -242q84 -124 231 -124zM534 -20q-218 0 -349 153q-116 143 -116 351t116 351q131 153 349 153t349 -153q116 -143 116 -351t-116 -351q-131 -153 -349 -153z" />
    <glyph glyph-name="p" unicode="p" horiz-adv-x="1188" 
d="M632 118q144 0 225 130q71 115 71 266q0 139 -61 230q-70 106 -205 106q-94 0 -178 -51t-146 -128v-415q120 -138 294 -138zM338 95v-459h-168v1332h126l32 -134q158 154 334 154q205 2 320.5 -133t114.5 -341q0 -106 -31.5 -202t-89.5 -170t-147.5 -118t-196.5 -44
q-164 0 -294 115z" />
    <glyph glyph-name="q" unicode="q" horiz-adv-x="1180" 
d="M991 968v-1332h-168v489q-157 -145 -325 -145q-137 -1 -237 63t-148.5 170.5t-48.5 240.5q0 143 53.5 263t161 195.5t250.5 75.5q167 0 313 -129l23 109h126zM498 118q90 0 175 50.5t150 128.5v415q-121 138 -294 138q-144 0 -225 -130q-72 -114 -72 -266q0 -139 61 -230
q70 -106 205 -106z" />
    <glyph glyph-name="r" unicode="r" horiz-adv-x="682" 
d="M324 711v-711h-168v968h126l29 -112q122 132 246 132q43 0 104 -16l-39 -146q-39 8 -81 9q-66 -1 -122.5 -34t-94.5 -90z" />
    <glyph glyph-name="s" unicode="s" horiz-adv-x="824" 
d="M403 -20q-161 0 -324 74l47 129q157 -65 266 -65q185 0 185 129q0 47 -39 82q-45 40 -153 83q-148 60 -213 119q-81 77 -81 178q0 137 91 207q92 72 223 72q137 0 307 -74l-47 -128q-147 64 -260 64q-64 0 -104.5 -31t-40.5 -94q0 -51 35 -83q43 -37 140 -74
q62 -24 132 -59q58 -30 100 -72q80 -82 80 -179q0 -71 -28 -123q-56 -101 -187 -137q-63 -18 -129 -18z" />
    <glyph glyph-name="t" unicode="t" horiz-adv-x="623" 
d="M447 -21q-128 0 -191.5 72t-63.5 222v568h-127v127h127v72l42 163h126v-235h168v-127h-168v-586q0 -67 28.5 -104t81.5 -37q41 0 90 10l22 -124q-75 -20 -135 -21z" />
    <glyph glyph-name="u" unicode="u" horiz-adv-x="1144" 
d="M503 -20q-161 0 -263 91.5t-102 246.5v650h168v-650q0 -89 52 -144q53 -56 145 -56q173 0 294 138v712h168v-968h-126l-28 108q-137 -128 -308 -128z" />
    <glyph glyph-name="v" unicode="v" horiz-adv-x="989" 
d="M956 968l-361 -968h-207l-361 968h165l299 -823l300 823h165z" />
    <glyph glyph-name="w" unicode="w" horiz-adv-x="1405" 
d="M1346 968l-246 -968h-215l-185 750l-186 -750h-214l-246 968h161l199 -817l204 817h164l204 -817l199 817h161z" />
    <glyph glyph-name="x" unicode="x" horiz-adv-x="941" 
d="M566 515l360 -515h-185l-267 383l-268 -383h-184l360 515l-317 453h185l224 -321l224 321h184z" />
    <glyph glyph-name="y" unicode="y" horiz-adv-x="962" 
d="M227 -385q-89 0 -182 37l33 124q76 -24 124 -24q104 0 147 117l75 210h-59l-342 889h172l277 -757l276 757h176l-430 -1154q-38 -98 -107 -148.5t-160 -50.5z" />
    <glyph glyph-name="z" unicode="z" horiz-adv-x="888" 
d="M806 127v-127h-749v95l537 746h-502v127h714v-95l-536 -746h536z" />
    <glyph glyph-name="braceleft" unicode="{" horiz-adv-x="772" 
d="M622 -175l-9 -108q-177 12 -248 102q-57 73 -57 207q0 52 9 151t9 141q0 194 -176 211v124q176 15 176 210q0 42 -9 141t-9 151q0 135 57 208q71 90 248 102l9 -109q-153 -13 -153 -165q0 -63 9 -142q11 -91 11 -174q0 -205 -147 -284q147 -81 147 -285q0 -83 -11 -174
q-9 -80 -9 -142q0 -152 153 -165z" />
    <glyph glyph-name="bar" unicode="|" horiz-adv-x="441" 
d="M291 1421v-1506h-141v1506h141z" />
    <glyph glyph-name="braceright" unicode="}" horiz-adv-x="771" 
d="M159 -283l-9 108q152 13 152 165q0 62 -9 142q-11 91 -11 174q0 202 147 285q-147 81 -147 284q0 83 11 174q9 79 9 142q0 78 -37.5 118t-114.5 47l9 109q178 -12 247 -102q57 -73 57 -208q0 -52 -9 -151t-9 -141q0 -195 176 -210v-124q-176 -17 -176 -211q0 -42 9 -141
t9 -151q0 -134 -57 -207q-69 -90 -247 -102z" />
    <glyph glyph-name="asciitilde" unicode="~" horiz-adv-x="1204" 
d="M796 496q-52 0 -110 20.5t-100.5 44.5t-95.5 43.5t-96 18.5q-83 0 -153 -85l-91 68q34 68 105 123t153 55q52 0 110 -20.5t100.5 -44.5t95.5 -43.5t96 -18.5q83 0 153 85l91 -68q-34 -67 -105 -122.5t-153 -55.5z" />
    <glyph glyph-name="exclamdown" unicode="&#xa1;" horiz-adv-x="535" 
d="M166 775v193h194v-193h-194zM159 -314l48 962h108l52 -962h-208z" />
    <glyph glyph-name="cent" unicode="&#xa2;" horiz-adv-x="1090" 
d="M484 293l269 557h-11q-147 0 -230 -125q-67 -100 -67 -241q0 -108 39 -191zM506 38l-81 -168h-145l123 254q-126 142 -126 360q0 209 117 350q129 154 348 154q43 0 76 -4l81 168h145l-95 -197q46 -15 98 -39l-47 -130q-53 26 -111 44l-317 -655q70 -57 170 -57
q77 0 134 16q61 17 124 48l47 -130q-150 -72 -305 -72q-136 0 -236 58z" />
    <glyph glyph-name="sterling" unicode="&#xa3;" horiz-adv-x="1176" 
d="M893 -21q-75 0 -191 22q-121 23 -195 23q-81 0 -198 -32q-17 -5 -53 -13l-48 132q87 61 130 158q44 99 44 200q0 46 -13 102h-219v126h182q-49 151 -49 240q-2 171 116 268.5t291 97.5q180 0 336 -76l-64 -117q-129 64 -275 64q-96 0 -164 -60t-68 -154q0 -60 15 -122
q18 -78 37 -141h333v-126h-302q9 -47 9 -93q0 -190 -140 -338q55 15 113 15q74 0 189 -26q101 -24 175 -24q60 0 142 17v-129q-73 -14 -133 -14z" />
    <glyph glyph-name="currency" unicode="&#xa4;" horiz-adv-x="1224" 
d="M612 416q93 0 158 65q66 66 66 159q0 94 -66 158q-64 66 -158 66q-93 0 -159 -66q-65 -65 -65 -158q0 -92 65 -159q67 -65 159 -65zM877 422l197 -234h-166l-128 152q-74 -43 -168 -43q-93 0 -169 43l-128 -152h-165l197 234q-78 93 -78 218t78 218l-197 234h165
l128 -152q76 43 169 43q94 0 168 -43l128 152h166l-197 -234q78 -93 78 -218t-78 -218z" />
    <glyph glyph-name="yen" unicode="&#xa5;" horiz-adv-x="1410" 
d="M792 238v-238h-174v238h-366v127h366v120h-366v127h322l-424 670h206l354 -594l353 594h197l-424 -670h321v-127h-365v-120h365v-127h-365z" />
    <glyph glyph-name="brokenbar" unicode="&#xa6;" horiz-adv-x="441" 
d="M291 1282v-648h-141v648h141zM291 283v-648h-141v648h141z" />
    <glyph glyph-name="section" unicode="&#xa7;" horiz-adv-x="1209" 
d="M620 -231q-189 0 -350 79l67 121q133 -65 278 -65q45 0 85 18q96 43 96 136q0 50 -39 94q-60 66 -237 161q-167 90 -251 162q-119 102 -119 228q0 81 35 135t103 91q-40 58 -40 131q-2 93 49 162.5t127.5 102t163.5 32.5q189 0 350 -79l-67 -121q-133 65 -277 65
q-44 0 -85 -18q-97 -43 -97 -136q0 -88 141 -176q55 -35 135 -79q171 -91 252 -161q119 -104 119 -229q0 -151 -139 -226q41 -59 41 -131q2 -92 -49.5 -162t-128.5 -103t-163 -32zM848 282q52 52 52 111q0 38 -22 74.5t-67.5 73t-88 64.5t-110.5 67q-168 98 -251 173
q-52 -52 -52 -112q0 -31 17 -62t39.5 -55t66.5 -56t75.5 -51.5t89.5 -54.5q169 -99 251 -172z" />
    <glyph glyph-name="dieresis" unicode="&#xa8;" horiz-adv-x="758" 
d="M319 1257v-169h-169v169h169zM608 1257v-169h-169v169h169z" />
    <glyph glyph-name="copyright" unicode="&#xa9;" horiz-adv-x="1525" 
d="M750 8q-180 0 -340 87t-252 245q-89 155 -89 330q0 179 91 334q91 157 254 243q164 86 336 86q88 0 172 -23q284 -75 417 -307q90 -155 90 -333q0 -175 -89 -330q-92 -159 -251 -245q-159 -87 -339 -87zM777 353q-142 0 -224 97q-75 88 -75 217q0 130 75 217
q82 97 224 97q74 0 148 -27l-30 -68q-57 22 -120 22q-102 0 -162 -82q-48 -64 -48 -159q0 -92 49 -159q60 -82 163 -82q61 0 118 22l30 -67q-72 -28 -148 -28zM750 81q158 0 301 77q142 78 223 219q79 136 79 293q0 158 -80 295q-82 142 -227 218q-145 77 -296 77
q-158 0 -297 -76q-144 -76 -227 -218q-81 -138 -81 -296q0 -156 80 -293q81 -141 223 -219q143 -77 302 -77z" />
    <glyph glyph-name="ordfeminine" unicode="&#xaa;" horiz-adv-x="784" 
d="M309 760q85 0 145.5 57t60.5 131q-96 30 -189 30q-57 0 -93.5 -29.5t-36.5 -79.5q0 -51 29.5 -80t83.5 -29zM708 753l-16 -76q-60 0 -105 26t-62 77q-42 -50 -101.5 -76.5t-124.5 -26.5q-95 0 -155 51q-59 51 -59 141q0 87 71 140t170 53q90 0 189 -37v54q0 63 -50 92
t-125 29q-88 0 -186 -39l-31 78q111 43 223 43q116 0 194 -48q86 -54 86 -155v-237q0 -55 38 -75q22 -10 44 -14zM671 527v-82h-550v82h550z" />
    <glyph glyph-name="guillemotleft" unicode="&#xab;" horiz-adv-x="964" 
d="M503 125l-109 -64l-244 424l244 423l109 -64l-208 -359zM814 125l-109 -64l-244 424l244 423l109 -64l-208 -359z" />
    <glyph glyph-name="logicalnot" unicode="&#xac;" horiz-adv-x="959" 
d="M913 703v-515h-127v389h-778v126h905z" />
    <glyph glyph-name="registered" unicode="&#xae;" horiz-adv-x="1670" 
d="M836 3q-183 0 -343 88q-162 90 -253 247q-90 155 -90 332q0 180 91 335q93 160 257 246t338 86q91 0 173 -22q285 -77 420 -310q91 -155 91 -335q0 -177 -90 -332q-91 -157 -253 -247q-160 -88 -341 -88zM905 640l150 -253h-94l-145 246h-114v-246h-87v585h228
q72 0 125 -35q75 -49 75 -134t-75 -136q-24 -15 -63 -27zM702 708h141q39 0 74 23q39 25 39 72q0 45 -39 71q-35 23 -74 23h-141v-189zM836 77q160 0 303 78t225 220q79 136 79 295q0 158 -81 298q-82 142 -229 219q-146 77 -297 77q-160 0 -300 -76q-146 -78 -228 -220
q-81 -140 -81 -298t80 -295q82 -142 225 -220q142 -78 304 -78z" />
    <glyph glyph-name="overscore" unicode="&#xaf;" horiz-adv-x="651" 
d="M608 1331v-126h-620v126h620z" />
    <glyph glyph-name="degree" unicode="&#xb0;" horiz-adv-x="711" 
d="M356 834q76 0 130 54q54 56 54 131q0 77 -54 131t-130 54q-77 0 -131 -54t-54 -131q0 -75 54 -131q54 -54 131 -54zM356 735q-118 0 -201 83q-83 85 -83 201q0 118 83 201t201 83q117 0 200 -83t83 -201q0 -116 -83 -201q-83 -83 -200 -83z" />
    <glyph glyph-name="plusminus" unicode="&#xb1;" horiz-adv-x="904" 
d="M501 1092v-389h389v-126h-389v-389h-127v389h-389v126h389v389h127zM913 0h-905v126h905v-126z" />
    <glyph glyph-name="uni00B2" unicode="&#xb2;" horiz-adv-x="643" 
d="M569 745v-100h-494v64q0 63 66 128q41 39 132 99q79 52 118 88q46 43 46 87q0 45 -32.5 67.5t-86.5 22.5q-80 0 -193 -51l-56 90q132 63 249 63q105 0 178 -52t73 -140q0 -108 -151 -213q-30 -22 -77 -52q-45 -29 -78 -52q-42 -29 -50 -49h356z" />
    <glyph glyph-name="uni00B3" unicode="&#xb3;" horiz-adv-x="640" 
d="M291 635q-117 0 -249 63l56 90q112 -51 196 -51q58 0 95 22t37 68q0 43 -52 70q-52 28 -104 28h-66v91h66q56 0 99 25q44 26 44 70t-34.5 67t-87.5 23q-73 0 -178 -44l-57 90q128 54 235 56q103 0 177 -52t74 -140q3 -48 -31 -88.5t-66 -49.5q35 -11 73 -53t38 -93
q0 -92 -86 -146q-73 -46 -179 -46z" />
    <glyph glyph-name="acute" unicode="&#xb4;" horiz-adv-x="597" 
d="M289 1088h-139l93 188h204z" />
    <glyph glyph-name="mu" unicode="&#xb5;" horiz-adv-x="1214" 
d="M340 45v-345h-168v1268h168v-650q0 -89 52 -144q53 -56 145 -56q173 0 294 138v712h168v-968h-126l-28 108q-137 -128 -308 -128q-117 0 -197 65z" />
    <glyph glyph-name="paragraph" unicode="&#xb6;" horiz-adv-x="986" 
d="M372 1282h514v-126h-109v-1256h-141v1256h-127v-1256h-141v838q-111 2 -188 80q-80 80 -80 192q0 113 79 192q80 80 193 80z" />
    <glyph glyph-name="middot" unicode="&#xb7;" horiz-adv-x="508" 
d="M212 723v-164h-165v164h165z" />
    <glyph glyph-name="middot" unicode="&#x2219;" horiz-adv-x="508" 
d="M212 723v-164h-165v164h165z" />
    <glyph glyph-name="cedilla" unicode="&#xb8;" horiz-adv-x="649" 
d="M150 -383v105h14q51 0 100 11q78 18 78 66q0 49 -128 78l37 123h110l-25 -78q41 -4 75.5 -18t61 -43.5t26.5 -70.5q0 -159 -268 -171q-62 -2 -81 -2z" />
    <glyph glyph-name="uni00B9" unicode="&#xb9;" horiz-adv-x="651" 
d="M579 734v-100h-456v100h164v412l-115 -61l-54 87l205 110h93v-548h163z" />
    <glyph glyph-name="ordmasculine" unicode="&#xba;" horiz-adv-x="828" 
d="M405 760q96 0 152 74q43 59 43 145q0 85 -43 146q-56 74 -152 74q-97 0 -153 -74q-43 -61 -43 -146q0 -86 43 -145q56 -74 153 -74zM405 677q-145 0 -231 92q-76 85 -76 210q0 126 76 211q86 92 231 92q144 0 230 -92q76 -85 76 -211q0 -125 -76 -210q-86 -92 -230 -92z
M680 527v-82h-550v82h550z" />
    <glyph glyph-name="guillemotright" unicode="&#xbb;" horiz-adv-x="964" 
d="M503 485l-244 -424l-109 64l208 360l-208 359l109 64zM814 485l-244 -424l-109 64l208 360l-208 359l109 64z" />
    <glyph glyph-name="onequarter" unicode="&#xbc;" horiz-adv-x="1509" 
d="M579 734v-100h-456v100h164v412l-115 -61l-54 87l205 110h93v-548h163zM1210 1282l-720 -1282h-139l722 1282h137zM1375 144v-144h-129v144h-317v62l311 442h135v-408h88v-96h-88zM1093 240h153v218z" />
    <glyph glyph-name="onehalf" unicode="&#xbd;" horiz-adv-x="1523" 
d="M579 734v-100h-456v100h164v412l-115 -61l-54 87l205 110h93v-548h163zM1210 1282l-720 -1282h-139l722 1282h137zM1449 100v-100h-494v64q0 64 66 128q41 39 132 99q79 52 118 88q46 43 46 87q0 45 -32.5 67.5t-86.5 22.5q-80 0 -193 -51l-56 90q132 63 249 63
q105 0 178 -52t73 -140q0 -108 -151 -213q-30 -22 -77 -52q-45 -29 -78 -52q-42 -29 -50 -49h356z" />
    <glyph glyph-name="threequarters" unicode="&#xbe;" horiz-adv-x="1498" 
d="M291 635q-117 0 -249 63l56 90q112 -51 196 -51q58 0 95 22t37 68q0 43 -52 70q-52 28 -104 28h-66v91h66q56 0 99 25q44 26 44 70t-34.5 67t-87.5 23q-73 0 -178 -44l-57 90q128 54 235 56q103 0 177 -52t74 -140q3 -48 -31 -88.5t-66 -49.5q35 -11 73 -53t38 -93
q0 -92 -86 -146q-73 -46 -179 -46zM1199 1282l-720 -1282h-139l722 1282h137zM1364 144v-144h-129v144h-317v62l311 442h135v-408h88v-96h-88zM1082 240h153v218z" />
    <glyph glyph-name="questiondown" unicode="&#xbf;" horiz-adv-x="910" 
d="M363 775v193h193v-193h-193zM397 524l6 124h108l12 -224l-48 -31q-161 -101 -229 -165q-102 -94 -102 -197q0 -106 76 -163.5t193 -57.5q167 0 354 94l73 -128q-216 -111 -427 -111q-184 -1 -314 98.5t-129 267.5q0 155 141 288q94 88 286 205z" />
    <glyph glyph-name="Agrave" unicode="&#xc0;" horiz-adv-x="1175" 
d="M354 491h450l-225 622zM688 1282l477 -1282h-183l-127 350h-551l-127 -350h-173l477 1282h207zM607 1590l92 -188h-138l-159 188h205z" />
    <glyph glyph-name="Aacute" unicode="&#xc1;" horiz-adv-x="1175" 
d="M354 491h450l-225 622zM688 1282l477 -1282h-183l-127 350h-551l-127 -350h-173l477 1282h207zM640 1402h-139l93 188h204z" />
    <glyph glyph-name="Acircumflex" unicode="&#xc2;" horiz-adv-x="1175" 
d="M354 491h450l-225 622zM688 1282l477 -1282h-183l-127 350h-551l-127 -350h-173l477 1282h207zM673 1590l169 -188h-127l-114 77l-115 -77h-127l169 188h145z" />
    <glyph glyph-name="Atilde" unicode="&#xc3;" horiz-adv-x="1175" 
d="M354 491h450l-225 622zM688 1282l477 -1282h-183l-127 350h-551l-127 -350h-173l477 1282h207zM704 1413q-46 0 -113 40q-65 38 -102 38q-44 0 -81 -52l-49 41q20 42 57 75.5t81 33.5q45 0 113 -40q62 -37 101 -37q45 0 82 51l48 -41q-17 -40 -55.5 -74.5t-81.5 -34.5z
" />
    <glyph glyph-name="Adieresis" unicode="&#xc4;" horiz-adv-x="1175" 
d="M354 491h450l-225 622zM688 1282l477 -1282h-183l-127 350h-551l-127 -350h-173l477 1282h207zM540 1571v-169h-169v169h169zM829 1571v-169h-169v169h169z" />
    <glyph glyph-name="Aring" unicode="&#xc5;" horiz-adv-x="1175" 
d="M354 491h450l-225 622zM688 1282l477 -1282h-183l-127 350h-551l-127 -350h-173l477 1282h207zM600 1362q-56 0 -96 39q-39 41 -39 96q0 56 39 95q40 40 96 40t95 -40q40 -39 40 -95t-40 -96q-39 -39 -95 -39zM600 1451q19 0 32.5 13.5t13.5 32.5t-13.5 32.5t-32.5 13.5
t-32.5 -13.5t-13.5 -32.5t13.5 -32.5t32.5 -13.5z" />
    <glyph glyph-name="AE" unicode="&#xc6;" horiz-adv-x="1486" 
d="M354 491h236v651l-11 -29zM590 0v350h-286l-127 -350h-173l477 1282h929v-140h-646v-425h599v-141h-599v-436h646v-140h-820z" />
    <glyph glyph-name="Ccedilla" unicode="&#xc7;" horiz-adv-x="1147" 
d="M488 -383v105q65 0 114 11q78 18 78 66q0 49 -128 78l33 110q-226 33 -365 193q-157 185 -157 461t157 461q175 201 472 201q219 0 428 -111l-74 -128q-94 49 -171 70q-79 24 -183 24q-224 0 -354 -175q-101 -142 -101 -342t101 -342q130 -175 354 -175q102 0 183 23
q79 23 171 71l74 -128q-209 -111 -428 -111l-18 -57q41 -4 75.5 -18t61 -43.5t26.5 -70.5q0 -159 -268 -171q-62 -2 -81 -2z" />
    <glyph glyph-name="Egrave" unicode="&#xc8;" horiz-adv-x="1077" 
d="M990 140v-140h-820v1282h820v-140h-646v-425h599v-141h-599v-436h646zM615 1590l92 -188h-138l-159 188h205z" />
    <glyph glyph-name="Eacute" unicode="&#xc9;" horiz-adv-x="1077" 
d="M990 140v-140h-820v1282h820v-140h-646v-425h599v-141h-599v-436h646zM648 1402h-139l93 188h204z" />
    <glyph glyph-name="Ecircumflex" unicode="&#xca;" horiz-adv-x="1077" 
d="M990 140v-140h-820v1282h820v-140h-646v-425h599v-141h-599v-436h646zM680 1590l169 -188h-127l-114 77l-115 -77h-127l169 188h145z" />
    <glyph glyph-name="Edieresis" unicode="&#xcb;" horiz-adv-x="1077" 
d="M990 140v-140h-820v1282h820v-140h-646v-425h599v-141h-599v-436h646zM548 1571v-169h-169v169h169zM837 1571v-169h-169v169h169z" />
    <glyph glyph-name="Igrave" unicode="&#xcc;" horiz-adv-x="557" 
d="M344 1282v-1282h-174v1282h174zM292 1590l92 -188h-138l-159 188h205z" />
    <glyph glyph-name="Iacute" unicode="&#xcd;" horiz-adv-x="557" 
d="M344 1282v-1282h-174v1282h174zM324 1402h-139l93 188h204z" />
    <glyph glyph-name="Icircumflex" unicode="&#xce;" horiz-adv-x="557" 
d="M344 1282v-1282h-174v1282h174zM357 1590l169 -188h-127l-114 77l-115 -77h-127l169 188h145z" />
    <glyph glyph-name="Idieresis" unicode="&#xcf;" horiz-adv-x="557" 
d="M344 1282v-1282h-174v1282h174zM225 1571v-169h-169v169h169zM514 1571v-169h-169v169h169z" />
    <glyph glyph-name="Eth" unicode="&#xd0;" horiz-adv-x="1351" 
d="M671 578h-328v-438h284q105 -1 192 39t144 109t88 160t31 193t-31 193t-88 160t-144 109t-192 39h-284v-438h328v-126zM71 704h98v578h458q296 0 472 -195q157 -179 157 -446t-157 -446q-176 -195 -472 -195h-458v578h-98v126z" />
    <glyph glyph-name="Ntilde" unicode="&#xd1;" horiz-adv-x="1387" 
d="M1174 1282v-1282h-171l-664 1004v-1004h-169v1282h171l664 -1004v1004h169zM804 1413q-46 0 -113 40q-65 38 -102 38q-44 0 -81 -52l-49 41q20 42 57 75.5t81 33.5q45 0 113 -40q62 -37 101 -37q45 0 82 51l48 -41q-17 -40 -55.5 -74.5t-81.5 -34.5z" />
    <glyph glyph-name="Ograve" unicode="&#xd2;" horiz-adv-x="1429" 
d="M692 124q228 0 354 175q101 143 101 342t-101 342q-126 175 -354 175t-354 -175q-101 -143 -101 -342t101 -342q126 -175 354 -175zM692 -21q-299 0 -471 202q-158 185 -158 460t158 460q172 202 471 202t471 -202q158 -185 158 -460t-158 -460q-172 -202 -471 -202z
M728 1590l92 -188h-138l-159 188h205z" />
    <glyph glyph-name="Oacute" unicode="&#xd3;" horiz-adv-x="1429" 
d="M692 124q228 0 354 175q101 143 101 342t-101 342q-126 175 -354 175t-354 -175q-101 -143 -101 -342t101 -342q126 -175 354 -175zM692 -21q-299 0 -471 202q-158 185 -158 460t158 460q172 202 471 202t471 -202q158 -185 158 -460t-158 -460q-172 -202 -471 -202z
M761 1402h-139l93 188h204z" />
    <glyph glyph-name="Ocircumflex" unicode="&#xd4;" horiz-adv-x="1429" 
d="M692 124q228 0 354 175q101 143 101 342t-101 342q-126 175 -354 175t-354 -175q-101 -143 -101 -342t101 -342q126 -175 354 -175zM692 -21q-299 0 -471 202q-158 185 -158 460t158 460q172 202 471 202t471 -202q158 -185 158 -460t-158 -460q-172 -202 -471 -202z
M793 1590l169 -188h-127l-114 77l-115 -77h-127l169 188h145z" />
    <glyph glyph-name="Otilde" unicode="&#xd5;" horiz-adv-x="1429" 
d="M692 124q228 0 354 175q101 143 101 342t-101 342q-126 175 -354 175t-354 -175q-101 -143 -101 -342t101 -342q126 -175 354 -175zM692 -21q-299 0 -471 202q-158 185 -158 460t158 460q172 202 471 202t471 -202q158 -185 158 -460t-158 -460q-172 -202 -471 -202z
M825 1413q-46 0 -113 40q-65 38 -102 38q-44 0 -81 -52l-49 41q20 42 57 75.5t81 33.5q45 0 113 -40q62 -37 101 -37q45 0 82 51l48 -41q-17 -40 -55.5 -74.5t-81.5 -34.5z" />
    <glyph glyph-name="Odieresis" unicode="&#xd6;" horiz-adv-x="1429" 
d="M692 124q228 0 354 175q101 143 101 342t-101 342q-126 175 -354 175t-354 -175q-101 -143 -101 -342t101 -342q126 -175 354 -175zM692 -21q-299 0 -471 202q-158 185 -158 460t158 460q172 202 471 202t471 -202q158 -185 158 -460t-158 -460q-172 -202 -471 -202z
M661 1571v-169h-169v169h169zM950 1571v-169h-169v169h169z" />
    <glyph glyph-name="multiply" unicode="&#xd7;" horiz-adv-x="1225" 
d="M695 640l380 -452h-166l-297 353l-296 -353h-166l380 452l-380 452h166l296 -353l297 353h166z" />
    <glyph glyph-name="Oslash" unicode="&#xd8;" horiz-adv-x="1416" 
d="M459 18l-57 -118h-145l84 174q-68 45 -120 107q-158 185 -158 460t158 460q172 202 471 202q118 0 225 -36l66 136h145l-92 -191q69 -43 127 -111q158 -185 158 -460t-158 -460q-172 -202 -471 -202q-124 0 -233 39zM411 219l441 912q-75 27 -160 27q-228 0 -354 -175
q-101 -143 -101 -342t101 -342q32 -45 73 -80zM692 124q228 0 354 175q101 143 101 342t-101 342q-35 51 -80 85l-442 -914q78 -30 168 -30z" />
    <glyph glyph-name="Ugrave" unicode="&#xd9;" horiz-adv-x="1328" 
d="M648 -21q-241 0 -383 163q-127 151 -127 373v767h174v-767q0 -149 74 -256q94 -130 262 -130t261 130q74 107 74 256v767h174v-767q0 -222 -127 -373q-142 -163 -382 -163zM680 1590l92 -188h-138l-159 188h205z" />
    <glyph glyph-name="Uacute" unicode="&#xda;" horiz-adv-x="1328" 
d="M648 -21q-241 0 -383 163q-127 151 -127 373v767h174v-767q0 -149 74 -256q94 -130 262 -130t261 130q74 107 74 256v767h174v-767q0 -222 -127 -373q-142 -163 -382 -163zM712 1402h-139l93 188h204z" />
    <glyph glyph-name="Ucircumflex" unicode="&#xdb;" horiz-adv-x="1328" 
d="M648 -21q-241 0 -383 163q-127 151 -127 373v767h174v-767q0 -149 74 -256q94 -130 262 -130t261 130q74 107 74 256v767h174v-767q0 -222 -127 -373q-142 -163 -382 -163zM745 1590l169 -188h-127l-114 77l-115 -77h-127l169 188h145z" />
    <glyph glyph-name="Udieresis" unicode="&#xdc;" horiz-adv-x="1328" 
d="M648 -21q-241 0 -383 163q-127 151 -127 373v767h174v-767q0 -149 74 -256q94 -130 262 -130t261 130q74 107 74 256v767h174v-767q0 -222 -127 -373q-142 -163 -382 -163zM613 1571v-169h-169v169h169zM902 1571v-169h-169v169h169z" />
    <glyph glyph-name="Yacute" unicode="&#xdd;" horiz-adv-x="1037" 
d="M641 543v-543h-174v543l-468 739h206l354 -594l353 594h197zM604 1402h-139l93 188h204z" />
    <glyph glyph-name="Thorn" unicode="&#xde;" horiz-adv-x="1140" 
d="M649 369h-305v-369h-174v1282h174v-200h305q149 0 261 -74q159 -106 159 -282t-159 -282q-111 -75 -261 -75zM344 942v-432h305q100 0 173 57.5t73 158.5q0 99 -73 157.5t-173 58.5h-305z" />
    <glyph glyph-name="germandbls" unicode="&#xdf;" horiz-adv-x="1125" 
d="M715 -20q-141 0 -246 75l68 118q60 -48 110 -52q47 -4 65 -4q70 0 122 41q50 47 50 115q0 45 -29 83q-22 27 -100 77q-68 45 -119 84q-113 86 -113 181q0 58 33 127.5t66 135.5t33 116q0 62 -43 102q-44 42 -109 42q-51 0 -96 -30q-73 -48 -81 -195q-3 -50 -3 -996h-168
v906q0 303 170 401q86 49 183 49q130 0 219 -72t89 -191q0 -93 -71 -225q-50 -98 -50 -145q0 -51 68 -102q33 -24 65 -43q121 -76 169 -130q59 -74 59 -165q0 -129 -96 -217q-97 -84 -170 -85q-49 -1 -75 -1z" />
    <glyph glyph-name="agrave" unicode="&#xe0;" horiz-adv-x="1053" 
d="M402 118q126 -2 219.5 95.5t91.5 218.5q-147 50 -286 50q-85 0 -140 -49q-56 -48 -56 -133q0 -86 44 -134t127 -48zM1005 107l-23 -127q-91 0 -158.5 43.5t-94.5 128.5q-64 -84 -154.5 -128t-187.5 -44q-146 0 -235 85q-90 86 -90 235q-2 97 50.5 171.5t135.5 112
t179 37.5q134 0 286 -61v90q0 54 -21.5 94.5t-59.5 63t-84 33.5t-99 11q-82 0 -148 -17q-62 -16 -134 -48l-48 130q84 35 160 53t178 18q176 0 294 -80q131 -89 131 -258v-395q0 -94 58 -125q28 -16 65 -23zM564 1276l92 -188h-138l-159 188h205z" />
    <glyph glyph-name="aacute" unicode="&#xe1;" horiz-adv-x="1053" 
d="M402 118q126 -2 219.5 95.5t91.5 218.5q-147 50 -286 50q-85 0 -140 -49q-56 -48 -56 -133q0 -86 44 -134t127 -48zM1005 107l-23 -127q-91 0 -158.5 43.5t-94.5 128.5q-64 -84 -154.5 -128t-187.5 -44q-146 0 -235 85q-90 86 -90 235q-2 97 50.5 171.5t135.5 112
t179 37.5q134 0 286 -61v90q0 54 -21.5 94.5t-59.5 63t-84 33.5t-99 11q-82 0 -148 -17q-62 -16 -134 -48l-48 130q84 35 160 53t178 18q176 0 294 -80q131 -89 131 -258v-395q0 -94 58 -125q28 -16 65 -23zM597 1088h-139l93 188h204z" />
    <glyph glyph-name="acircumflex" unicode="&#xe2;" horiz-adv-x="1053" 
d="M402 118q126 -2 219.5 95.5t91.5 218.5q-147 50 -286 50q-85 0 -140 -49q-56 -48 -56 -133q0 -86 44 -134t127 -48zM1005 107l-23 -127q-91 0 -158.5 43.5t-94.5 128.5q-64 -84 -154.5 -128t-187.5 -44q-146 0 -235 85q-90 86 -90 235q-2 97 50.5 171.5t135.5 112
t179 37.5q134 0 286 -61v90q0 54 -21.5 94.5t-59.5 63t-84 33.5t-99 11q-82 0 -148 -17q-62 -16 -134 -48l-48 130q84 35 160 53t178 18q176 0 294 -80q131 -89 131 -258v-395q0 -94 58 -125q28 -16 65 -23zM629 1276l169 -188h-127l-114 77l-115 -77h-127l169 188h145z" />
    <glyph glyph-name="atilde" unicode="&#xe3;" horiz-adv-x="1053" 
d="M402 118q126 -2 219.5 95.5t91.5 218.5q-147 50 -286 50q-85 0 -140 -49q-56 -48 -56 -133q0 -86 44 -134t127 -48zM1005 107l-23 -127q-91 0 -158.5 43.5t-94.5 128.5q-64 -84 -154.5 -128t-187.5 -44q-146 0 -235 85q-90 86 -90 235q-2 97 50.5 171.5t135.5 112
t179 37.5q134 0 286 -61v90q0 54 -21.5 94.5t-59.5 63t-84 33.5t-99 11q-82 0 -148 -17q-62 -16 -134 -48l-48 130q84 35 160 53t178 18q176 0 294 -80q131 -89 131 -258v-395q0 -94 58 -125q28 -16 65 -23zM660 1099q-46 0 -113 40q-65 38 -102 38q-44 0 -81 -52l-49 41
q20 42 57 75.5t81 33.5q45 0 113 -40q62 -37 101 -37q45 0 82 51l48 -41q-17 -40 -55.5 -74.5t-81.5 -34.5z" />
    <glyph glyph-name="adieresis" unicode="&#xe4;" horiz-adv-x="1053" 
d="M402 118q126 -2 219.5 95.5t91.5 218.5q-147 50 -286 50q-85 0 -140 -49q-56 -48 -56 -133q0 -86 44 -134t127 -48zM1005 107l-23 -127q-91 0 -158.5 43.5t-94.5 128.5q-64 -84 -154.5 -128t-187.5 -44q-146 0 -235 85q-90 86 -90 235q-2 97 50.5 171.5t135.5 112
t179 37.5q134 0 286 -61v90q0 54 -21.5 94.5t-59.5 63t-84 33.5t-99 11q-82 0 -148 -17q-62 -16 -134 -48l-48 130q84 35 160 53t178 18q176 0 294 -80q131 -89 131 -258v-395q0 -94 58 -125q28 -16 65 -23zM497 1257v-169h-169v169h169zM786 1257v-169h-169v169h169z" />
    <glyph glyph-name="aring" unicode="&#xe5;" horiz-adv-x="1053" 
d="M402 118q126 -2 219.5 95.5t91.5 218.5q-147 50 -286 50q-85 0 -140 -49q-56 -48 -56 -133q0 -86 44 -134t127 -48zM1005 107l-23 -127q-91 0 -158.5 43.5t-94.5 128.5q-64 -84 -154.5 -128t-187.5 -44q-146 0 -235 85q-90 86 -90 235q-2 97 50.5 171.5t135.5 112
t179 37.5q134 0 286 -61v90q0 54 -21.5 94.5t-59.5 63t-84 33.5t-99 11q-82 0 -148 -17q-62 -16 -134 -48l-48 130q84 35 160 53t178 18q176 0 294 -80q131 -89 131 -258v-395q0 -94 58 -125q28 -16 65 -23zM557 1048q-55 0 -96 39q-39 41 -39 96q0 56 39 95q40 40 96 40
t95 -40q40 -39 40 -95t-40 -96q-39 -39 -95 -39zM557 1137q19 0 32.5 13.5t13.5 32.5t-13.5 32.5t-32.5 13.5t-32.5 -13.5t-13.5 -32.5t13.5 -32.5t32.5 -13.5z" />
    <glyph glyph-name="ae" unicode="&#xe6;" horiz-adv-x="1615" 
d="M878 547h490q0 303 -229 303q-126 0 -196 -97q-60 -84 -65 -206zM1171 -20q-151 0 -255 63q-98 60 -151 165q-34 -48 -41 -56q-64 -84 -154.5 -128t-188.5 -44q-145 0 -234 85q-90 86 -90 235q-1 97 50.5 171.5t134.5 112t180 37.5q134 0 286 -61v90q0 54 -22 94.5
t-60.5 63t-84 33.5t-98.5 11q-80 0 -143.5 -15.5t-138.5 -49.5l-47 130q85 36 159 53q78 18 178 18q176 0 294 -80q42 -27 71 -66q114 146 323 146q197 0 295 -131q88 -116 88 -305q0 -70 -13 -131h-631q33 -303 293 -303q73 0 130 15t128 49l48 -130q-150 -72 -306 -72z
M397 118q125 -2 218.5 95t92.5 214v5q-147 50 -286 50q-85 0 -141 -49q-56 -48 -56 -133q0 -86 44 -134t128 -48z" />
    <glyph glyph-name="ccedilla" unicode="&#xe7;" horiz-adv-x="892" 
d="M315 -383v105q192 0 192 77q0 49 -128 78l34 113q-148 29 -242 144q-117 141 -117 350t117 350q127 154 348 154q155 0 305 -72l-47 -130q-58 28 -124 47q-60 17 -134 17q-147 0 -230 -125q-67 -100 -67 -241t67 -241q83 -125 230 -125q77 0 134 16q61 17 124 48l47 -130
q-150 -72 -304 -72l-19 -58q41 -4 75.5 -18t61 -43.5t26.5 -70.5q0 -159 -268 -171q-62 -2 -81 -2z" />
    <glyph glyph-name="egrave" unicode="&#xe8;" horiz-adv-x="980" 
d="M243 547h489q0 303 -229 303q-125 0 -195 -97q-62 -86 -65 -206zM536 -20q-225 0 -345 136t-120 368q0 208 102 348q115 156 330 156q197 0 296 -131q87 -117 87 -305q0 -68 -12 -131h-631q14 -143 85.5 -223t207.5 -80q77 0 134 16q61 17 124 48l47 -130
q-150 -72 -305 -72zM509 1276l92 -188h-138l-159 188h205z" />
    <glyph glyph-name="eacute" unicode="&#xe9;" horiz-adv-x="980" 
d="M243 547h489q0 303 -229 303q-125 0 -195 -97q-62 -86 -65 -206zM536 -20q-225 0 -345 136t-120 368q0 208 102 348q115 156 330 156q197 0 296 -131q87 -117 87 -305q0 -68 -12 -131h-631q14 -143 85.5 -223t207.5 -80q77 0 134 16q61 17 124 48l47 -130
q-150 -72 -305 -72zM541 1088h-139l93 188h204z" />
    <glyph glyph-name="ecircumflex" unicode="&#xea;" horiz-adv-x="980" 
d="M243 547h489q0 303 -229 303q-125 0 -195 -97q-62 -86 -65 -206zM536 -20q-225 0 -345 136t-120 368q0 208 102 348q115 156 330 156q197 0 296 -131q87 -117 87 -305q0 -68 -12 -131h-631q14 -143 85.5 -223t207.5 -80q77 0 134 16q61 17 124 48l47 -130
q-150 -72 -305 -72zM574 1276l169 -188h-127l-114 77l-115 -77h-127l169 188h145z" />
    <glyph glyph-name="edieresis" unicode="&#xeb;" horiz-adv-x="980" 
d="M243 547h489q0 303 -229 303q-125 0 -195 -97q-62 -86 -65 -206zM536 -20q-225 0 -345 136t-120 368q0 208 102 348q115 156 330 156q197 0 296 -131q87 -117 87 -305q0 -68 -12 -131h-631q14 -143 85.5 -223t207.5 -80q77 0 134 16q61 17 124 48l47 -130
q-150 -72 -305 -72zM442 1257v-169h-169v169h169zM731 1257v-169h-169v169h169z" />
    <glyph glyph-name="igrave" unicode="&#xec;" horiz-adv-x="483" 
d="M316 968v-968h-168v968h168zM281 1276l92 -188h-138l-159 188h205z" />
    <glyph glyph-name="iacute" unicode="&#xed;" horiz-adv-x="483" 
d="M316 968v-968h-168v968h168zM314 1088h-139l93 188h204z" />
    <glyph glyph-name="icircumflex" unicode="&#xee;" horiz-adv-x="483" 
d="M316 968v-968h-168v968h168zM347 1276l169 -188h-127l-114 77l-115 -77h-127l169 188h145z" />
    <glyph glyph-name="idieresis" unicode="&#xef;" horiz-adv-x="483" 
d="M316 968v-968h-168v968h168zM214 1257v-169h-169v169h169zM503 1257v-169h-169v169h169z" />
    <glyph glyph-name="eth" unicode="&#xf0;" horiz-adv-x="1151" 
d="M489 118q90 0 175 50.5t149 128.5v415q-121 138 -294 138q-144 0 -225 -130q-72 -114 -72 -266q0 -138 62 -230q69 -106 205 -106zM981 1040v-1040h-126l-34 132q-81 -73 -160 -112.5t-172 -39.5q-104 -1 -187.5 35.5t-137 101.5t-82 151t-28.5 186q0 143 53.5 263
t161 195.5t250.5 75.5q164 0 294 -115v167h-132v126h132v116h168v-116h100v-126h-100z" />
    <glyph glyph-name="ntilde" unicode="&#xf1;" horiz-adv-x="1137" 
d="M983 650v-650h-168v650q0 88 -53 144t-144 56q-174 0 -294 -138v-712h-168v968h126l28 -108q137 128 308 128q161 0 263 -91.5t102 -246.5zM713 1099q-46 0 -113 40q-65 38 -102 38q-44 0 -81 -52l-49 41q20 42 57 75.5t81 33.5q45 0 113 -40q62 -37 101 -37q44 0 82 51
l48 -41q-17 -40 -55.5 -74.5t-81.5 -34.5z" />
    <glyph glyph-name="ograve" unicode="&#xf2;" horiz-adv-x="1085" 
d="M534 118q147 0 231 124q66 100 66 242t-66 242q-84 124 -231 124t-231 -124q-65 -101 -65 -242t65 -242q84 -124 231 -124zM534 -20q-218 0 -349 153q-116 143 -116 351t116 351q131 153 349 153t349 -153q116 -143 116 -351t-116 -351q-131 -153 -349 -153zM570 1276
l92 -188h-138l-159 188h205z" />
    <glyph glyph-name="oacute" unicode="&#xf3;" horiz-adv-x="1085" 
d="M534 118q147 0 231 124q66 100 66 242t-66 242q-84 124 -231 124t-231 -124q-65 -101 -65 -242t65 -242q84 -124 231 -124zM534 -20q-218 0 -349 153q-116 143 -116 351t116 351q131 153 349 153t349 -153q116 -143 116 -351t-116 -351q-131 -153 -349 -153zM603 1088
h-139l93 188h204z" />
    <glyph glyph-name="ocircumflex" unicode="&#xf4;" horiz-adv-x="1085" 
d="M534 118q147 0 231 124q66 100 66 242t-66 242q-84 124 -231 124t-231 -124q-65 -101 -65 -242t65 -242q84 -124 231 -124zM534 -20q-218 0 -349 153q-116 143 -116 351t116 351q131 153 349 153t349 -153q116 -143 116 -351t-116 -351q-131 -153 -349 -153zM636 1276
l169 -188h-127l-114 77l-115 -77h-127l169 188h145z" />
    <glyph glyph-name="otilde" unicode="&#xf5;" horiz-adv-x="1085" 
d="M534 118q147 0 231 124q66 100 66 242t-66 242q-84 124 -231 124t-231 -124q-65 -101 -65 -242t65 -242q84 -124 231 -124zM534 -20q-218 0 -349 153q-116 143 -116 351t116 351q131 153 349 153t349 -153q116 -143 116 -351t-116 -351q-131 -153 -349 -153zM667 1099
q-46 0 -113 40q-65 38 -102 38q-44 0 -81 -52l-49 41q20 42 57 75.5t81 33.5q45 0 113 -40q62 -37 101 -37q44 0 82 51l48 -41q-17 -40 -55.5 -74.5t-81.5 -34.5z" />
    <glyph glyph-name="odieresis" unicode="&#xf6;" horiz-adv-x="1085" 
d="M534 118q147 0 231 124q66 100 66 242t-66 242q-84 124 -231 124t-231 -124q-65 -101 -65 -242t65 -242q84 -124 231 -124zM534 -20q-218 0 -349 153q-116 143 -116 351t116 351q131 153 349 153t349 -153q116 -143 116 -351t-116 -351q-131 -153 -349 -153zM503 1257
v-169h-169v169h169zM792 1257v-169h-169v169h169z" />
    <glyph glyph-name="divide" unicode="&#xf7;" horiz-adv-x="961" 
d="M913 577h-905v126h905v-126zM550 363v-193h-194v193h194zM550 1110v-193h-194v193h194z" />
    <glyph glyph-name="oslash" unicode="&#xf8;" horiz-adv-x="1077" 
d="M878 1088l-87 -181q43 -31 77 -72q116 -143 116 -351t-116 -351q-130 -153 -349 -153q-91 0 -163 25l-51 -105h-145l80 166q-38 29 -70 67q-116 143 -116 351t116 351q130 153 349 153q83 0 155 -23l59 123h145zM311 212l300 624q-44 14 -92 14q-147 0 -231 -124
q-65 -101 -65 -242t65 -242q9 -15 23 -30zM721 763l-303 -628q48 -17 101 -17q147 0 231 124q66 100 66 242t-66 242q-15 21 -29 37z" />
    <glyph glyph-name="ugrave" unicode="&#xf9;" horiz-adv-x="1144" 
d="M503 -20q-161 0 -263 91.5t-102 246.5v650h168v-650q0 -89 52 -144q53 -56 145 -56q173 0 294 138v712h168v-968h-126l-28 108q-137 -128 -308 -128zM592 1276l92 -188h-138l-159 188h205z" />
    <glyph glyph-name="uacute" unicode="&#xfa;" horiz-adv-x="1144" 
d="M503 -20q-161 0 -263 91.5t-102 246.5v650h168v-650q0 -89 52 -144q53 -56 145 -56q173 0 294 138v712h168v-968h-126l-28 108q-137 -128 -308 -128zM625 1088h-139l93 188h204z" />
    <glyph glyph-name="ucircumflex" unicode="&#xfb;" horiz-adv-x="1144" 
d="M503 -20q-161 0 -263 91.5t-102 246.5v650h168v-650q0 -89 52 -144q53 -56 145 -56q173 0 294 138v712h168v-968h-126l-28 108q-137 -128 -308 -128zM658 1276l169 -188h-127l-114 77l-115 -77h-127l169 188h145z" />
    <glyph glyph-name="udieresis" unicode="&#xfc;" horiz-adv-x="1144" 
d="M503 -20q-161 0 -263 91.5t-102 246.5v650h168v-650q0 -89 52 -144q53 -56 145 -56q173 0 294 138v712h168v-968h-126l-28 108q-137 -128 -308 -128zM525 1257v-169h-169v169h169zM814 1257v-169h-169v169h169z" />
    <glyph glyph-name="yacute" unicode="&#xfd;" horiz-adv-x="962" 
d="M227 -385q-89 0 -182 37l33 124q76 -24 124 -24q104 0 147 117l75 210h-59l-342 889h172l277 -757l276 757h176l-430 -1154q-38 -98 -107 -148.5t-160 -50.5zM536 1088h-139l93 188h204z" />
    <glyph glyph-name="thorn" unicode="&#xfe;" horiz-adv-x="1197" 
d="M639 118q144 0 225 130q71 115 71 266q0 139 -61 230q-70 106 -205 106q-94 0 -178 -51t-146 -128v-415q120 -138 294 -138zM345 95v-459h-168v1646h168v-438q155 144 324 144q205 2 320.5 -133t114.5 -341q0 -106 -31.5 -202t-89.5 -170t-147.5 -118t-196.5 -44
q-164 0 -294 115z" />
    <glyph glyph-name="ydieresis" unicode="&#xff;" horiz-adv-x="962" 
d="M227 -385q-89 0 -182 37l33 124q76 -24 124 -24q104 0 147 117l75 210h-59l-342 889h172l277 -757l276 757h176l-430 -1154q-38 -98 -107 -148.5t-160 -50.5zM437 1257v-169h-169v169h169zM726 1257v-169h-169v169h169z" />
    <glyph glyph-name="Amacron" unicode="&#x100;" horiz-adv-x="1175" 
d="M354 491h450l-225 622zM688 1282l477 -1282h-183l-127 350h-551l-127 -350h-173l477 1282h207zM800 1529v-127h-400v127h400z" />
    <glyph glyph-name="amacron" unicode="&#x101;" horiz-adv-x="1053" 
d="M402 118q126 -2 219.5 95.5t91.5 218.5q-147 50 -286 50q-85 0 -140 -49q-56 -48 -56 -133q0 -86 44 -134t127 -48zM1005 107l-23 -127q-91 0 -158.5 43.5t-94.5 128.5q-64 -84 -154.5 -128t-187.5 -44q-146 0 -235 85q-90 86 -90 235q-2 97 50.5 171.5t135.5 112
t179 37.5q134 0 286 -61v90q0 54 -21.5 94.5t-59.5 63t-84 33.5t-99 11q-82 0 -148 -17q-62 -16 -134 -48l-48 130q84 35 160 53t178 18q176 0 294 -80q131 -89 131 -258v-395q0 -94 58 -125q28 -16 65 -23zM757 1215v-127h-400v127h400z" />
    <glyph glyph-name="Abreve" unicode="&#x102;" horiz-adv-x="1175" 
d="M354 491h450l-225 622zM688 1282l477 -1282h-183l-127 350h-551l-127 -350h-173l477 1282h207zM601 1402q-66 0 -125.5 34t-101.5 99l67 67q61 -70 160 -70q98 0 159 70l68 -67q-43 -65 -102.5 -99t-124.5 -34z" />
    <glyph glyph-name="abreve" unicode="&#x103;" horiz-adv-x="1053" 
d="M402 118q126 -2 219.5 95.5t91.5 218.5q-147 50 -286 50q-85 0 -140 -49q-56 -48 -56 -133q0 -86 44 -134t127 -48zM1005 107l-23 -127q-91 0 -158.5 43.5t-94.5 128.5q-64 -84 -154.5 -128t-187.5 -44q-146 0 -235 85q-90 86 -90 235q-2 97 50.5 171.5t135.5 112
t179 37.5q134 0 286 -61v90q0 54 -21.5 94.5t-59.5 63t-84 33.5t-99 11q-82 0 -148 -17q-62 -16 -134 -48l-48 130q84 35 160 53t178 18q176 0 294 -80q131 -89 131 -258v-395q0 -94 58 -125q28 -16 65 -23zM557 1088q-66 0 -125.5 34t-101.5 99l67 67q61 -70 160 -70
q98 0 159 70l68 -67q-43 -65 -102.5 -99t-124.5 -34z" />
    <glyph glyph-name="Aogonek" unicode="&#x104;" horiz-adv-x="1188" 
d="M354 491h450l-225 622zM1034 0h-52l-127 350h-551l-127 -350h-173l477 1282h207l477 -1282l-22 -26q-100 -117 -102 -182q0 -70 124 -70v-104q-106 0 -166 19q-94 30 -94 115q0 83 64 168q42 54 65 80z" />
    <glyph glyph-name="aogonek" unicode="&#x105;" horiz-adv-x="1073" 
d="M397 118q126 -2 219.5 95.5t91.5 218.5q-147 50 -286 50q-85 0 -140 -49q-56 -48 -56 -133q0 -86 44 -134t127 -48zM1000 -278v-104q-105 0 -165 19q-95 30 -95 115q0 82 65 168q21 27 63 79q-108 39 -144 153q-64 -84 -154.5 -128t-187.5 -44q-146 0 -235 85
q-90 86 -90 235q-2 97 50.5 171.5t135.5 112t179 37.5q134 0 286 -61v90q0 54 -21.5 94.5t-59.5 63t-84 33.5t-99 11q-82 0 -148 -17q-62 -16 -134 -48l-48 130q84 35 160 53q77 18 178 18q176 0 294 -80q131 -89 131 -258v-395q0 -94 58 -125q28 -16 65 -23l-23 -133
q-100 -118 -100 -185t123 -67z" />
    <glyph glyph-name="Cacute" unicode="&#x106;" horiz-adv-x="1160" 
d="M692 -21q-297 0 -472 201q-157 185 -157 461t157 461q175 201 472 201q219 0 428 -111l-74 -128q-94 49 -171 70q-79 24 -183 24q-224 0 -354 -175q-101 -142 -101 -342t101 -342q130 -175 354 -175q102 0 183 23q79 23 171 71l74 -128q-209 -111 -428 -111zM661 1402
h-139l93 188h204z" />
    <glyph glyph-name="cacute" unicode="&#x107;" horiz-adv-x="896" 
d="M524 -20q-221 0 -348 154q-117 141 -117 350t117 350q127 154 348 154q155 0 305 -72l-47 -130q-58 28 -124 47q-60 17 -134 17q-147 0 -230 -125q-67 -100 -67 -241t67 -241q83 -125 230 -125q77 0 134 16q61 17 124 48l47 -130q-150 -72 -305 -72zM522 1088h-139
l93 188h204z" />
    <glyph glyph-name="Ccircumflex" unicode="&#x108;" horiz-adv-x="1160" 
d="M692 -21q-297 0 -472 201q-157 185 -157 461t157 461q175 201 472 201q219 0 428 -111l-74 -128q-94 49 -171 70q-79 24 -183 24q-224 0 -354 -175q-101 -142 -101 -342t101 -342q130 -175 354 -175q102 0 183 23q79 23 171 71l74 -128q-209 -111 -428 -111zM693 1590
l169 -188h-127l-114 77l-115 -77h-127l169 188h145z" />
    <glyph glyph-name="ccircumflex" unicode="&#x109;" horiz-adv-x="896" 
d="M524 -20q-221 0 -348 154q-117 141 -117 350t117 350q127 154 348 154q155 0 305 -72l-47 -130q-58 28 -124 47q-60 17 -134 17q-147 0 -230 -125q-67 -100 -67 -241t67 -241q83 -125 230 -125q77 0 134 16q61 17 124 48l47 -130q-150 -72 -305 -72zM554 1276l169 -188
h-127l-114 77l-115 -77h-127l169 188h145z" />
    <glyph glyph-name="Cdotaccent" unicode="&#x10a;" horiz-adv-x="1160" 
d="M692 -21q-297 0 -472 201q-157 185 -157 461t157 461q175 201 472 201q219 0 428 -111l-74 -128q-94 49 -171 70q-79 24 -183 24q-224 0 -354 -175q-101 -142 -101 -342t101 -342q130 -175 354 -175q102 0 183 23q79 23 171 71l74 -128q-209 -111 -428 -111zM705 1571
v-169h-169v169h169z" />
    <glyph glyph-name="cdotaccent" unicode="&#x10b;" horiz-adv-x="896" 
d="M524 -20q-221 0 -348 154q-117 141 -117 350t117 350q127 154 348 154q155 0 305 -72l-47 -130q-58 28 -124 47q-60 17 -134 17q-147 0 -230 -125q-67 -100 -67 -241t67 -241q83 -125 230 -125q77 0 134 16q61 17 124 48l47 -130q-150 -72 -305 -72zM566 1257v-169h-169
v169h169z" />
    <glyph glyph-name="Ccaron" unicode="&#x10c;" horiz-adv-x="1160" 
d="M692 -21q-297 0 -472 201q-157 185 -157 461t157 461q175 201 472 201q219 0 428 -111l-74 -128q-94 49 -171 70q-79 24 -183 24q-224 0 -354 -175q-101 -142 -101 -342t101 -342q130 -175 354 -175q102 0 183 23q79 23 171 71l74 -128q-209 -111 -428 -111zM735 1590
h127l-169 -188h-145l-169 188h127l115 -77z" />
    <glyph glyph-name="ccaron" unicode="&#x10d;" horiz-adv-x="896" 
d="M524 -20q-221 0 -348 154q-117 141 -117 350t117 350q127 154 348 154q155 0 305 -72l-47 -130q-58 28 -124 47q-60 17 -134 17q-147 0 -230 -125q-67 -100 -67 -241t67 -241q83 -125 230 -125q77 0 134 16q61 17 124 48l47 -130q-150 -72 -305 -72zM596 1276h127
l-169 -188h-145l-169 188h127l115 -77z" />
    <glyph glyph-name="Dcaron" unicode="&#x10e;" horiz-adv-x="1365" 
d="M628 0h-458v1282h458q296 0 472 -195q157 -179 157 -446t-157 -446q-176 -195 -472 -195zM344 140h284q105 -1 192 39t144 109t88 160t31 193t-31 193t-88 160t-144 109t-192 39h-284v-1002zM856 1590h127l-169 -188h-145l-169 188h127l115 -77z" />
    <glyph glyph-name="dcaron" unicode="&#x10f;" horiz-adv-x="1379" 
d="M457 -20q-104 -1 -187.5 35.5t-137 101.5t-82 151t-28.5 186q0 143 53.5 263t161 195.5t250.5 75.5q164 0 294 -115v409h168v-1282h-126l-34 132q-81 -73 -160 -112.5t-172 -39.5zM457 118q90 0 175 50.5t149 128.5v415q-121 138 -294 138q-144 0 -225 -130
q-72 -114 -72 -266q0 -138 62 -230q69 -106 205 -106zM1314 1147h-41v135h136v-95q0 -99 -69 -268l-67 30q37 96 41 198z" />
    <glyph glyph-name="Dcroat" unicode="&#x110;" horiz-adv-x="1351" 
d="M671 578h-328v-438h284q105 -1 192 39t144 109t88 160t31 193t-31 193t-88 160t-144 109t-192 39h-284v-438h328v-126zM71 704h98v578h458q296 0 472 -195q157 -179 157 -446t-157 -446q-176 -195 -472 -195h-458v578h-98v126z" />
    <glyph glyph-name="dslash" unicode="&#x111;" horiz-adv-x="1151" 
d="M489 118q90 0 175 50.5t149 128.5v415q-121 138 -294 138q-144 0 -225 -130q-72 -114 -72 -266q0 -138 62 -230q69 -106 205 -106zM981 1040v-1040h-126l-34 132q-81 -73 -160 -112.5t-172 -39.5q-104 -1 -187.5 35.5t-137 101.5t-82 151t-28.5 186q0 143 53.5 263
t161 195.5t250.5 75.5q164 0 294 -115v167h-132v126h132v116h168v-116h100v-126h-100z" />
    <glyph glyph-name="Emacron" unicode="&#x112;" horiz-adv-x="1077" 
d="M990 140v-140h-820v1282h820v-140h-646v-425h599v-141h-599v-436h646zM808 1529v-127h-400v127h400z" />
    <glyph glyph-name="emacron" unicode="&#x113;" horiz-adv-x="980" 
d="M243 547h489q0 303 -229 303q-125 0 -195 -97q-62 -86 -65 -206zM536 -20q-225 0 -345 136t-120 368q0 208 102 348q115 156 330 156q197 0 296 -131q87 -117 87 -305q0 -68 -12 -131h-631q14 -143 85.5 -223t207.5 -80q77 0 134 16q61 17 124 48l47 -130
q-150 -72 -305 -72zM702 1215v-127h-400v127h400z" />
    <glyph glyph-name="Ebreve" unicode="&#x114;" horiz-adv-x="1077" 
d="M990 140v-140h-820v1282h820v-140h-646v-425h599v-141h-599v-436h646zM608 1402q-66 0 -125.5 34t-101.5 99l67 67q61 -70 160 -70q98 0 159 70l68 -67q-43 -65 -102.5 -99t-124.5 -34z" />
    <glyph glyph-name="ebreve" unicode="&#x115;" horiz-adv-x="980" 
d="M243 547h489q0 303 -229 303q-125 0 -195 -97q-62 -86 -65 -206zM536 -20q-225 0 -345 136t-120 368q0 208 102 348q115 156 330 156q197 0 296 -131q87 -117 87 -305q0 -68 -12 -131h-631q14 -143 85.5 -223t207.5 -80q77 0 134 16q61 17 124 48l47 -130
q-150 -72 -305 -72zM502 1088q-66 0 -125.5 34t-101.5 99l67 67q61 -70 160 -70q98 0 159 70l68 -67q-43 -65 -102.5 -99t-124.5 -34z" />
    <glyph glyph-name="Edotaccent" unicode="&#x116;" horiz-adv-x="1077" 
d="M990 140v-140h-820v1282h820v-140h-646v-425h599v-141h-599v-436h646zM692 1571v-169h-169v169h169z" />
    <glyph glyph-name="edotaccent" unicode="&#x117;" horiz-adv-x="980" 
d="M243 547h489q0 303 -229 303q-125 0 -195 -97q-62 -86 -65 -206zM536 -20q-225 0 -345 136t-120 368q0 208 102 348q115 156 330 156q197 0 296 -131q87 -117 87 -305q0 -68 -12 -131h-631q14 -143 85.5 -223t207.5 -80q77 0 134 16q61 17 124 48l47 -130
q-150 -72 -305 -72zM586 1257v-169h-169v169h169z" />
    <glyph glyph-name="Eogonek" unicode="&#x118;" horiz-adv-x="1082" 
d="M859 0h-689v1282h820v-140h-646v-425h599v-141h-599v-436h646v-140l-22 -26q-100 -117 -102 -182q0 -70 124 -70v-104q-106 0 -166 19q-94 30 -94 115q0 83 64 168q42 54 65 80z" />
    <glyph glyph-name="eogonek" unicode="&#x119;" horiz-adv-x="962" 
d="M226 547h489q0 303 -229 303q-125 0 -195 -97q-62 -86 -65 -206zM721 -278v-104q-105 0 -165 19q-94 30 -94 115q0 83 64 168q23 31 50 62q-38 -2 -57 -2q-225 0 -345 136t-120 368q0 208 102 348q116 156 330 156q197 0 296 -131q87 -117 87 -305q0 -68 -12 -131h-631
q14 -143 85.5 -223t207.5 -80q77 0 134 16q61 17 124 48l47 -130q-226 -118 -226 -263q0 -67 123 -67z" />
    <glyph glyph-name="Ecaron" unicode="&#x11a;" horiz-adv-x="1077" 
d="M990 140v-140h-820v1282h820v-140h-646v-425h599v-141h-599v-436h646zM722 1590h127l-169 -188h-145l-169 188h127l115 -77z" />
    <glyph glyph-name="ecaron" unicode="&#x11b;" horiz-adv-x="980" 
d="M243 547h489q0 303 -229 303q-125 0 -195 -97q-62 -86 -65 -206zM536 -20q-225 0 -345 136t-120 368q0 208 102 348q115 156 330 156q197 0 296 -131q87 -117 87 -305q0 -68 -12 -131h-631q14 -143 85.5 -223t207.5 -80q77 0 134 16q61 17 124 48l47 -130
q-150 -72 -305 -72zM616 1276h127l-169 -188h-145l-169 188h127l115 -77z" />
    <glyph glyph-name="Gcircumflex" unicode="&#x11c;" horiz-adv-x="1310" 
d="M695 -21q-298 0 -473 201q-156 186 -156 461t156 461q175 201 473 201q219 0 428 -111l-74 -128q-94 49 -171 70q-80 24 -183 24q-223 0 -355 -175q-100 -140 -100 -342t100 -342q132 -175 355 -175q191 0 334 87v365h-351v141h505v-582q-96 -78 -232 -118
q-135 -38 -256 -38zM721 1590l169 -188h-127l-114 77l-115 -77h-127l169 188h145z" />
    <glyph glyph-name="gcircumflex" unicode="&#x11d;" horiz-adv-x="1117" 
d="M485 194q80 0 157 32.5t128 91.5v392q-117 139 -265 139q-130 0 -203 -112q-64 -100 -64 -236q0 -63 13 -116.5t41 -98t77 -69t116 -23.5zM474 -385q-157 0 -306 73l48 130q69 -34 126.5 -49t131.5 -15q147 0 231 124q65 101 65 242v54q-57 -49 -139 -84
q-81 -35 -156 -35q-196 0 -300 122t-104 324q0 204 114 342q120 145 320 145q141 0 278 -125l30 105h126v-848q0 -208 -116 -351q-130 -154 -349 -154zM604 1276l169 -188h-127l-114 77l-115 -77h-127l169 188h145z" />
    <glyph glyph-name="Gbreve" unicode="&#x11e;" horiz-adv-x="1310" 
d="M695 -21q-298 0 -473 201q-156 186 -156 461t156 461q175 201 473 201q219 0 428 -111l-74 -128q-94 49 -171 70q-80 24 -183 24q-223 0 -355 -175q-100 -140 -100 -342t100 -342q132 -175 355 -175q191 0 334 87v365h-351v141h505v-582q-96 -78 -232 -118
q-135 -38 -256 -38zM649 1402q-66 0 -125.5 34t-101.5 99l67 67q61 -70 160 -70q98 0 159 70l68 -67q-43 -65 -102.5 -99t-124.5 -34z" />
    <glyph glyph-name="gbreve" unicode="&#x11f;" horiz-adv-x="1117" 
d="M485 194q80 0 157 32.5t128 91.5v392q-117 139 -265 139q-130 0 -203 -112q-64 -100 -64 -236q0 -63 13 -116.5t41 -98t77 -69t116 -23.5zM474 -385q-157 0 -306 73l48 130q69 -34 126.5 -49t131.5 -15q147 0 231 124q65 101 65 242v54q-57 -49 -139 -84
q-81 -35 -156 -35q-196 0 -300 122t-104 324q0 204 114 342q120 145 320 145q141 0 278 -125l30 105h126v-848q0 -208 -116 -351q-130 -154 -349 -154zM532 1088q-66 0 -125.5 34t-101.5 99l67 67q61 -70 160 -70q98 0 159 70l68 -67q-43 -65 -102.5 -99t-124.5 -34z" />
    <glyph glyph-name="Gdotaccent" unicode="&#x120;" horiz-adv-x="1310" 
d="M695 -21q-298 0 -473 201q-156 186 -156 461t156 461q175 201 473 201q219 0 428 -111l-74 -128q-94 49 -171 70q-80 24 -183 24q-223 0 -355 -175q-100 -140 -100 -342t100 -342q132 -175 355 -175q191 0 334 87v365h-351v141h505v-582q-96 -78 -232 -118
q-135 -38 -256 -38zM733 1571v-169h-169v169h169z" />
    <glyph glyph-name="gdotaccent" unicode="&#x121;" horiz-adv-x="1117" 
d="M485 194q80 0 157 32.5t128 91.5v392q-117 139 -265 139q-130 0 -203 -112q-64 -100 -64 -236q0 -63 13 -116.5t41 -98t77 -69t116 -23.5zM474 -385q-157 0 -306 73l48 130q69 -34 126.5 -49t131.5 -15q147 0 231 124q65 101 65 242v54q-57 -49 -139 -84
q-81 -35 -156 -35q-196 0 -300 122t-104 324q0 204 114 342q120 145 320 145q141 0 278 -125l30 105h126v-848q0 -208 -116 -351q-130 -154 -349 -154zM616 1257v-169h-169v169h169z" />
    <glyph glyph-name="uni0122" unicode="&#x122;" horiz-adv-x="1310" 
d="M695 -21q-298 0 -473 201q-156 186 -156 461t156 461q175 201 473 201q219 0 428 -111l-74 -128q-94 49 -171 70q-80 24 -183 24q-223 0 -355 -175q-100 -140 -100 -342t100 -342q132 -175 355 -175q191 0 334 87v365h-351v141h505v-582q-96 -78 -232 -118
q-135 -38 -256 -38zM622 -235h-41v135h136v-95q0 -99 -69 -268l-67 30q37 96 41 198z" />
    <glyph glyph-name="uni0123" unicode="&#x123;" horiz-adv-x="1117" 
d="M485 194q80 0 157 32.5t128 91.5v392q-117 139 -265 139q-130 0 -203 -112q-64 -100 -64 -236q0 -63 13 -116.5t41 -98t77 -69t116 -23.5zM474 -385q-157 0 -306 73l48 130q69 -34 126.5 -49t131.5 -15q147 0 231 124q65 101 65 242v54q-57 -49 -139 -84
q-81 -35 -156 -35q-196 0 -300 122t-104 324q0 204 114 342q120 145 320 145q141 0 278 -125l30 105h126v-848q0 -208 -116 -351q-130 -154 -349 -154zM559 1229h41v-135h-136v95q0 99 69 268l67 -30q-37 -96 -41 -198z" />
    <glyph glyph-name="Hcircumflex" unicode="&#x124;" horiz-adv-x="1396" 
d="M1183 1282v-1282h-174v576h-665v-576h-174v1282h174v-565h665v565h174zM777 1590l169 -188h-127l-114 77l-115 -77h-127l169 188h145z" />
    <glyph glyph-name="hcircumflex" unicode="&#x125;" horiz-adv-x="1155" 
d="M993 650v-650h-168v650q0 91 -46 145.5t-135 54.5q-163 0 -309 -179v-671h-168v1282h168v-459q138 165 324 165q157 0 245 -91q89 -91 89 -247zM356 1550l169 -188h-127l-114 77l-115 -77h-127l169 188h145z" />
    <glyph glyph-name="Hbar" unicode="&#x126;" horiz-adv-x="1364" 
d="M1275 955h-93v-955h-174v576h-665v-576h-174v955h-94v127h94v200h174v-200h665v200h174v-200h93v-127zM1008 955h-665v-238h665v238z" />
    <glyph glyph-name="hbar" unicode="&#x127;" horiz-adv-x="1152" 
d="M470 1040h-132v-217q138 165 324 165q157 0 245 -91q89 -91 89 -247v-650h-168v650q0 91 -46 145.5t-135 54.5q-163 0 -309 -179v-671h-168v1040h-100v126h100v116h168v-116h132v-126z" />
    <glyph glyph-name="Itilde" unicode="&#x128;" horiz-adv-x="557" 
d="M344 1282v-1282h-174v1282h174zM388 1413q-46 0 -113 40q-65 38 -102 38q-44 0 -81 -52l-49 41q20 42 57 75.5t81 33.5q45 0 113 -40q62 -37 101 -37q45 0 82 51l48 -41q-17 -40 -55.5 -74.5t-81.5 -34.5z" />
    <glyph glyph-name="itilde" unicode="&#x129;" horiz-adv-x="483" 
d="M316 968v-968h-168v968h168zM378 1099q-46 0 -113 40q-65 38 -102 38q-44 0 -81 -52l-49 41q20 42 57 75.5t81 33.5q45 0 113 -40q62 -37 101 -37q45 0 82 51l48 -41q-17 -40 -55.5 -74.5t-81.5 -34.5z" />
    <glyph glyph-name="Imacron" unicode="&#x12a;" horiz-adv-x="557" 
d="M344 1282v-1282h-174v1282h174zM485 1529v-127h-400v127h400z" />
    <glyph glyph-name="imacron" unicode="&#x12b;" horiz-adv-x="483" 
d="M316 968v-968h-168v968h168zM474 1215v-127h-400v127h400z" />
    <glyph glyph-name="Ibreve" unicode="&#x12c;" horiz-adv-x="557" 
d="M344 1282v-1282h-174v1282h174zM285 1402q-66 0 -125.5 34t-101.5 99l67 67q61 -70 160 -70q98 0 159 70l68 -67q-43 -65 -102.5 -99t-124.5 -34z" />
    <glyph glyph-name="ibreve" unicode="&#x12d;" horiz-adv-x="483" 
d="M316 968v-968h-168v968h168zM275 1088q-66 0 -125.5 34t-101.5 99l67 67q61 -70 160 -70q98 0 159 70l68 -67q-43 -65 -102.5 -99t-124.5 -34z" />
    <glyph glyph-name="Iogonek" unicode="&#x12e;" horiz-adv-x="555" 
d="M346 -278v-104q-106 0 -166 19q-94 30 -94 115q0 83 64 168q42 54 65 80h-43v1282h174v-1282l-22 -26q-101 -119 -101 -185q0 -67 123 -67z" />
    <glyph glyph-name="iogonek" unicode="&#x12f;" horiz-adv-x="510" 
d="M332 1263v-168h-168v168h168zM332 -278v-104q-105 0 -165 19q-94 30 -94 115q0 83 64 168q42 54 64 80h-37v968h168v-968l-22 -26q-101 -119 -101 -185q0 -67 123 -67z" />
    <glyph glyph-name="Idotaccent" unicode="&#x130;" horiz-adv-x="557" 
d="M344 1282v-1282h-174v1282h174zM369 1571v-169h-169v169h169z" />
    <glyph glyph-name="dotlessi" unicode="&#x131;" horiz-adv-x="483" 
d="M316 968v-968h-168v968h168z" />
    <glyph glyph-name="IJ" unicode="&#x132;" horiz-adv-x="1237" 
d="M316 1282v-1282h-174v1282h174zM717 -21q-71 0 -135 21l37 138q54 -14 98 -14q94 0 136.5 59t42.5 151v948h174v-937q0 -163 -91.5 -264.5t-261.5 -101.5z" />
    <glyph glyph-name="ij" unicode="&#x133;" horiz-adv-x="1087" 
d="M316 968v-968h-168v968h168zM316 1263v-168h-168v168h168zM594 -385q-59 2 -113 16l23 127q40 -8 75 -8q132 0 132 141v1077h169v-1059q0 -294 -286 -294zM880 1263v-168h-169v168h169z" />
    <glyph glyph-name="Jcircumflex" unicode="&#x134;" horiz-adv-x="668" 
d="M129 -21q-71 0 -135 21l37 138q54 -14 98 -14q94 0 136.5 59t42.5 151v948h174v-937q0 -163 -91.5 -264.5t-261.5 -101.5zM473 1590l169 -188h-127l-114 77l-115 -77h-127l169 188h145z" />
    <glyph glyph-name="jcircumflex" unicode="&#x135;" horiz-adv-x="484" 
d="M31 -385q-59 2 -113 16l23 127q40 -8 75 -8q132 0 132 141v1077h169v-1059q0 -294 -286 -294zM329 1276l169 -188h-127l-114 77l-115 -77h-127l169 188h145z" />
    <glyph glyph-name="uni0136" unicode="&#x136;" horiz-adv-x="1190" 
d="M637 647l556 -647h-211l-496 576h-142v-576h-174v1282h174v-565h152l486 565h202zM683 -235h-41v135h136v-95q0 -99 -69 -268l-67 30q37 96 41 198z" />
    <glyph glyph-name="uni0137" unicode="&#x137;" horiz-adv-x="1019" 
d="M578 552l426 -552h-194l-378 488h-97v-488h-168v1282h168v-667h101l337 353h203zM592 -235h-41v135h136v-95q0 -99 -69 -268l-67 30q37 96 41 198z" />
    <glyph glyph-name="kgreenlandic" unicode="&#x138;" horiz-adv-x="1000" 
d="M559 552l426 -552h-194l-378 488h-97v-488h-168v968h168v-353h101l337 353h203z" />
    <glyph glyph-name="Lacute" unicode="&#x139;" horiz-adv-x="949" 
d="M933 140v-140h-763v1282h174v-1142h589zM337 1402h-139l93 188h204z" />
    <glyph glyph-name="lacute" unicode="&#x13a;" horiz-adv-x="564" 
d="M411 -21q-128 0 -191.5 72t-63.5 222v1009h168v-1027q0 -67 28 -104t82 -37q45 0 89 10l22 -124q-73 -19 -134 -21zM333 1402h-139l93 188h204z" />
    <glyph glyph-name="uni013B" unicode="&#x13b;" horiz-adv-x="949" 
d="M933 140v-140h-763v1282h174v-1142h589zM552 -235h-41v135h136v-95q0 -99 -69 -268l-67 30q37 96 41 198z" />
    <glyph glyph-name="uni013C" unicode="&#x13c;" horiz-adv-x="564" 
d="M411 -21q-128 0 -191.5 72t-63.5 222v1009h168v-1027q0 -67 28 -104t82 -37q45 0 89 10l22 -124q-73 -19 -134 -21zM363 -235h-41v135h136v-95q0 -99 -69 -268l-67 30q37 96 41 198z" />
    <glyph glyph-name="Lcaron" unicode="&#x13d;" horiz-adv-x="949" 
d="M933 140v-140h-763v1282h174v-1142h589zM866 1147h-41v135h136v-95q0 -99 -69 -268l-67 30q37 96 41 198z" />
    <glyph glyph-name="lcaron" unicode="&#x13e;" horiz-adv-x="691" 
d="M373 -21q-128 0 -191.5 72t-63.5 222v1009h168v-1027q0 -67 28 -104t82 -37q45 0 89 10l22 -124q-73 -19 -134 -21zM604 1147h-41v135h136v-95q0 -99 -69 -268l-67 30q37 96 41 198z" />
    <glyph glyph-name="Ldot" unicode="&#x13f;" horiz-adv-x="949" 
d="M933 140v-140h-763v1282h174v-1142h589zM879 723v-164h-164v164h164z" />
    <glyph glyph-name="ldot" unicode="&#x140;" horiz-adv-x="716" 
d="M373 -21q-128 0 -191.5 72t-63.5 222v1009h168v-1027q0 -67 28 -104t82 -37q45 0 89 10l22 -124q-73 -19 -134 -21zM675 713v-164h-164v164h164z" />
    <glyph glyph-name="Lslash" unicode="&#x141;" horiz-adv-x="973" 
d="M375 639v-499h589v-140h-763v465l-81 -81l-89 89l170 170v639h174v-465l81 81l89 -89z" />
    <glyph glyph-name="lslash" unicode="&#x142;" horiz-adv-x="610" 
d="M442 -21q-128 0 -191.5 72t-63.5 222v196l-84 -84l-89 89l173 173v635h168v-468l84 84l89 -89l-173 -173v-381q0 -67 28 -104t82 -37q45 0 89 10l22 -124q-73 -19 -134 -21z" />
    <glyph glyph-name="Nacute" unicode="&#x143;" horiz-adv-x="1387" 
d="M1174 1282v-1282h-171l-664 1004v-1004h-169v1282h171l664 -1004v1004h169zM740 1402h-139l93 188h204z" />
    <glyph glyph-name="nacute" unicode="&#x144;" horiz-adv-x="1137" 
d="M983 650v-650h-168v650q0 88 -53 144t-144 56q-174 0 -294 -138v-712h-168v968h126l28 -108q137 128 308 128q161 0 263 -91.5t102 -246.5zM649 1088h-139l93 188h204z" />
    <glyph glyph-name="uni0145" unicode="&#x145;" horiz-adv-x="1387" 
d="M1174 1282v-1282h-171l-664 1004v-1004h-169v1282h171l664 -1004v1004h169zM673 -235h-41v135h136v-95q0 -99 -69 -268l-67 30q37 96 41 198z" />
    <glyph glyph-name="uni0146" unicode="&#x146;" horiz-adv-x="1137" 
d="M983 650v-650h-168v650q0 88 -53 144t-144 56q-174 0 -294 -138v-712h-168v968h126l28 -108q137 128 308 128q161 0 263 -91.5t102 -246.5zM582 -235h-41v135h136v-95q0 -99 -69 -268l-67 30q37 96 41 198z" />
    <glyph glyph-name="Ncaron" unicode="&#x147;" horiz-adv-x="1387" 
d="M1174 1282v-1282h-171l-664 1004v-1004h-169v1282h171l664 -1004v1004h169zM814 1590h127l-169 -188h-145l-169 188h127l115 -77z" />
    <glyph glyph-name="ncaron" unicode="&#x148;" horiz-adv-x="1137" 
d="M983 650v-650h-168v650q0 88 -53 144t-144 56q-174 0 -294 -138v-712h-168v968h126l28 -108q137 128 308 128q161 0 263 -91.5t102 -246.5zM724 1276h127l-169 -188h-145l-169 188h127l115 -77z" />
    <glyph glyph-name="napostrophe" unicode="&#x149;" horiz-adv-x="1145" 
d="M135 1322h-41v135h136v-95q0 -98 -69 -268l-67 30q37 96 41 198zM949 650v-650h-168v650q0 88 -53 144t-144 56q-174 0 -294 -138v-712h-168v968h126l28 -108q137 128 308 128q161 0 263 -91.5t102 -246.5z" />
    <glyph glyph-name="Eng" unicode="&#x14a;" horiz-adv-x="1374" 
d="M339 898v-898h-169v1282h169v-201q246 222 471 222q166 -4 266 -93t99 -265v-795q0 -347 -223 -551l-82 62q137 161 137 439v845q0 107 -52 163.5t-145 56.5q-212 0 -471 -267z" />
    <glyph glyph-name="eng" unicode="&#x14b;" horiz-adv-x="1135" 
d="M807 100v550q0 88 -53 144t-144 56q-174 0 -294 -138v-712h-168v968h126l28 -108q137 128 308 128q161 0 263 -91.5t102 -246.5v-500q0 -347 -223 -551l-82 62q137 161 137 439z" />
    <glyph glyph-name="Omacron" unicode="&#x14c;" horiz-adv-x="1429" 
d="M692 124q228 0 354 175q101 143 101 342t-101 342q-126 175 -354 175t-354 -175q-101 -143 -101 -342t101 -342q126 -175 354 -175zM692 -21q-299 0 -471 202q-158 185 -158 460t158 460q172 202 471 202t471 -202q158 -185 158 -460t-158 -460q-172 -202 -471 -202z
M921 1529v-127h-400v127h400z" />
    <glyph glyph-name="omacron" unicode="&#x14d;" horiz-adv-x="1085" 
d="M534 118q147 0 231 124q66 100 66 242t-66 242q-84 124 -231 124t-231 -124q-65 -101 -65 -242t65 -242q84 -124 231 -124zM534 -20q-218 0 -349 153q-116 143 -116 351t116 351q131 153 349 153t349 -153q116 -143 116 -351t-116 -351q-131 -153 -349 -153zM763 1215
v-127h-400v127h400z" />
    <glyph glyph-name="Obreve" unicode="&#x14e;" horiz-adv-x="1429" 
d="M692 124q228 0 354 175q101 143 101 342t-101 342q-126 175 -354 175t-354 -175q-101 -143 -101 -342t101 -342q126 -175 354 -175zM692 -21q-299 0 -471 202q-158 185 -158 460t158 460q172 202 471 202t471 -202q158 -185 158 -460t-158 -460q-172 -202 -471 -202z
M721 1402q-66 0 -125.5 34t-101.5 99l67 67q61 -70 160 -70q98 0 159 70l68 -67q-43 -65 -102.5 -99t-124.5 -34z" />
    <glyph glyph-name="obreve" unicode="&#x14f;" horiz-adv-x="1085" 
d="M534 118q147 0 231 124q66 100 66 242t-66 242q-84 124 -231 124t-231 -124q-65 -101 -65 -242t65 -242q84 -124 231 -124zM534 -20q-218 0 -349 153q-116 143 -116 351t116 351q131 153 349 153t349 -153q116 -143 116 -351t-116 -351q-131 -153 -349 -153zM563 1088
q-66 0 -125.5 34t-101.5 99l67 67q61 -70 160 -70q98 0 159 70l68 -67q-43 -65 -102.5 -99t-124.5 -34z" />
    <glyph glyph-name="Ohungarumlaut" unicode="&#x150;" horiz-adv-x="1429" 
d="M692 124q228 0 354 175q101 143 101 342t-101 342q-126 175 -354 175t-354 -175q-101 -143 -101 -342t101 -342q126 -175 354 -175zM692 -21q-299 0 -471 202q-158 185 -158 460t158 460q172 202 471 202t471 -202q158 -185 158 -460t-158 -460q-172 -202 -471 -202z
M640 1402h-139l93 188h204zM936 1402h-139l93 188h204z" />
    <glyph glyph-name="ohungarumlaut" unicode="&#x151;" horiz-adv-x="1085" 
d="M534 118q147 0 231 124q66 100 66 242t-66 242q-84 124 -231 124t-231 -124q-65 -101 -65 -242t65 -242q84 -124 231 -124zM534 -20q-218 0 -349 153q-116 143 -116 351t116 351q131 153 349 153t349 -153q116 -143 116 -351t-116 -351q-131 -153 -349 -153zM473 1088
h-139l93 188h204zM769 1088h-139l93 188h204z" />
    <glyph glyph-name="OE" unicode="&#x152;" horiz-adv-x="2044" 
d="M692 124q228 0 354 175q101 143 101 342t-101 342q-126 175 -354 175t-354 -175q-101 -143 -101 -342t101 -342q126 -175 354 -175zM1148 0v164q-87 -93 -196 -136q-120 -49 -260 -49q-299 0 -471 202q-158 185 -158 460t158 460q172 202 471 202q138 0 260 -48
q109 -44 196 -137v164h820v-140h-646v-425h599v-141h-599v-436h646v-140h-820z" />
    <glyph glyph-name="oe" unicode="&#x153;" horiz-adv-x="1729" 
d="M519 118q147 0 231 124q66 100 66 242t-66 242q-84 124 -231 124t-231 -124q-65 -101 -65 -242t65 -242q84 -124 231 -124zM993 547h489q0 303 -229 303q-126 0 -195 -97q-62 -86 -65 -206zM898 174q-15 -23 -30 -41q-130 -153 -349 -153t-349 153q-116 143 -116 351
t116 351q130 153 349 153t349 -153q15 -18 30 -41q16 26 25 38q115 156 330 156q197 0 296 -131q87 -117 87 -305q0 -70 -13 -131h-630q14 -143 85.5 -223t207.5 -80q77 0 134 16q61 17 124 48l47 -130q-150 -72 -305 -72q-152 0 -256 63q-82 49 -132 131z" />
    <glyph glyph-name="Racute" unicode="&#x154;" horiz-adv-x="1179" 
d="M344 710h305q101 0 174 57.5t73 158.5q0 99 -73 157.5t-174 58.5h-305v-432zM773 583l345 -583h-186l-337 569h-251v-569h-174v1282h479q150 0 262 -74q159 -106 159 -282q0 -177 -159 -283q-63 -43 -138 -60zM712 1402h-139l93 188h204z" />
    <glyph glyph-name="racute" unicode="&#x155;" horiz-adv-x="682" 
d="M324 711v-711h-168v968h126l29 -112q122 132 246 132q43 0 104 -16l-39 -146q-39 8 -81 9q-66 -1 -122.5 -34t-94.5 -90zM488 1088h-139l93 188h204z" />
    <glyph glyph-name="uni0156" unicode="&#x156;" horiz-adv-x="1179" 
d="M344 710h305q101 0 174 57.5t73 158.5q0 99 -73 157.5t-174 58.5h-305v-432zM773 583l345 -583h-186l-337 569h-251v-569h-174v1282h479q150 0 262 -74q159 -106 159 -282q0 -177 -159 -283q-63 -43 -138 -60zM645 -235h-41v135h136v-95q0 -99 -69 -268l-67 30
q37 96 41 198z" />
    <glyph glyph-name="uni0157" unicode="&#x157;" horiz-adv-x="682" 
d="M324 711v-711h-168v968h126l29 -112q122 132 246 132q43 0 104 -16l-39 -146q-39 8 -81 9q-66 -1 -122.5 -34t-94.5 -90zM253 -235h-41v135h136v-95q0 -99 -69 -268l-67 30q37 96 41 198z" />
    <glyph glyph-name="Rcaron" unicode="&#x158;" horiz-adv-x="1179" 
d="M344 710h305q101 0 174 57.5t73 158.5q0 99 -73 157.5t-174 58.5h-305v-432zM773 583l345 -583h-186l-337 569h-251v-569h-174v1282h479q150 0 262 -74q159 -106 159 -282q0 -177 -159 -283q-63 -43 -138 -60zM787 1590h127l-169 -188h-145l-169 188h127l115 -77z" />
    <glyph glyph-name="rcaron" unicode="&#x159;" horiz-adv-x="682" 
d="M324 711v-711h-168v968h126l29 -112q122 132 246 132q43 0 104 -16l-39 -146q-39 8 -81 9q-66 -1 -122.5 -34t-94.5 -90zM563 1276h127l-169 -188h-145l-169 188h127l115 -77z" />
    <glyph glyph-name="Sacute" unicode="&#x15a;" horiz-adv-x="1042" 
d="M491 -22q-228 1 -428 111l74 128q94 -48 170 -70q83 -23 189 -23q126 0 205 51q80 53 80 155q0 58 -45 106q-64 68 -243 136q-98 38 -165 71q-64 31 -120 78q-53 45 -80.5 108.5t-27.5 133.5q0 153 103 243q112 97 294 97q223 0 434 -111l-73 -128q-187 94 -366 94
q-91 0 -155 -45q-63 -43 -63 -134q0 -95 72 -148q64 -48 226 -110q86 -34 163 -74q83 -42 141 -108q80 -92 80 -198q0 -97 -39 -164q-77 -131 -256 -177q-82 -22 -170 -22zM567 1402h-139l93 188h204z" />
    <glyph glyph-name="sacute" unicode="&#x15b;" horiz-adv-x="824" 
d="M403 -20q-161 0 -324 74l47 129q157 -65 266 -65q185 0 185 129q0 47 -39 82q-45 40 -153 83q-148 60 -213 119q-81 77 -81 178q0 137 91 207q92 72 223 72q137 0 307 -74l-47 -128q-147 64 -260 64q-64 0 -104.5 -31t-40.5 -94q0 -51 35 -83q43 -37 140 -74
q62 -24 132 -59q58 -30 100 -72q80 -82 80 -179q0 -71 -28 -123q-56 -101 -187 -137q-63 -18 -129 -18zM463 1088h-139l93 188h204z" />
    <glyph glyph-name="Scircumflex" unicode="&#x15c;" horiz-adv-x="1042" 
d="M491 -22q-228 1 -428 111l74 128q94 -48 170 -70q83 -23 189 -23q126 0 205 51q80 53 80 155q0 58 -45 106q-64 68 -243 136q-98 38 -165 71q-64 31 -120 78q-53 45 -80.5 108.5t-27.5 133.5q0 153 103 243q112 97 294 97q223 0 434 -111l-73 -128q-187 94 -366 94
q-91 0 -155 -45q-63 -43 -63 -134q0 -95 72 -148q64 -48 226 -110q86 -34 163 -74q83 -42 141 -108q80 -92 80 -198q0 -97 -39 -164q-77 -131 -256 -177q-82 -22 -170 -22zM600 1590l169 -188h-127l-114 77l-115 -77h-127l169 188h145z" />
    <glyph glyph-name="scircumflex" unicode="&#x15d;" horiz-adv-x="824" 
d="M403 -20q-161 0 -324 74l47 129q157 -65 266 -65q185 0 185 129q0 47 -39 82q-45 40 -153 83q-148 60 -213 119q-81 77 -81 178q0 137 91 207q92 72 223 72q137 0 307 -74l-47 -128q-147 64 -260 64q-64 0 -104.5 -31t-40.5 -94q0 -51 35 -83q43 -37 140 -74
q62 -24 132 -59q58 -30 100 -72q80 -82 80 -179q0 -71 -28 -123q-56 -101 -187 -137q-63 -18 -129 -18zM495 1276l169 -188h-127l-114 77l-115 -77h-127l169 188h145z" />
    <glyph glyph-name="Scedilla" unicode="&#x15e;" horiz-adv-x="1035" 
d="M335 -383v105q192 0 192 77q0 49 -128 78l31 103q-192 13 -367 109l74 128q94 -48 170 -70q83 -23 189 -23q126 0 205 51q80 53 80 155q0 58 -45 106q-64 68 -243 136q-98 38 -165 71q-64 31 -120 78q-53 45 -80.5 108.5t-27.5 133.5q0 153 103 243q112 97 294 97
q223 0 434 -111l-73 -128q-187 94 -366 94q-91 0 -155 -45q-63 -43 -63 -134q0 -95 72 -148q64 -48 226 -110q86 -34 163 -74q83 -42 141 -108q80 -92 80 -198q0 -97 -39 -164q-77 -131 -256 -177q-55 -15 -121 -20l-19 -58q41 -4 75.5 -18t61 -43.5t26.5 -70.5
q0 -159 -268 -171q-62 -2 -81 -2z" />
    <glyph glyph-name="scedilla" unicode="&#x15f;" horiz-adv-x="822" 
d="M236 -383v105q64 0 113 11q79 18 79 66q0 49 -128 78l32 106q-132 14 -256 71l47 129q157 -65 266 -65q185 0 185 129q0 47 -39 82q-45 40 -153 83q-148 60 -213 119q-81 77 -81 178q0 137 91 207q92 72 223 72q137 0 307 -74l-47 -128q-147 64 -260 64q-64 0 -104.5 -31
t-40.5 -94q0 -51 35 -83q43 -37 140 -74q62 -24 132 -59q58 -30 100 -72q80 -82 80 -179q0 -71 -28 -123q-56 -101 -187 -137q-41 -11 -88 -16l-19 -60q41 -4 75.5 -18t61 -43.5t26.5 -70.5q0 -159 -269 -171q-60 -2 -80 -2z" />
    <glyph glyph-name="Scaron" unicode="&#x160;" horiz-adv-x="1042" 
d="M491 -22q-228 1 -428 111l74 128q94 -48 170 -70q83 -23 189 -23q126 0 205 51q80 53 80 155q0 58 -45 106q-64 68 -243 136q-98 38 -165 71q-64 31 -120 78q-53 45 -80.5 108.5t-27.5 133.5q0 153 103 243q112 97 294 97q223 0 434 -111l-73 -128q-187 94 -366 94
q-91 0 -155 -45q-63 -43 -63 -134q0 -95 72 -148q64 -48 226 -110q86 -34 163 -74q83 -42 141 -108q80 -92 80 -198q0 -97 -39 -164q-77 -131 -256 -177q-82 -22 -170 -22zM642 1590h127l-169 -188h-145l-169 188h127l115 -77z" />
    <glyph glyph-name="scaron" unicode="&#x161;" horiz-adv-x="824" 
d="M403 -20q-161 0 -324 74l47 129q157 -65 266 -65q185 0 185 129q0 47 -39 82q-45 40 -153 83q-148 60 -213 119q-81 77 -81 178q0 137 91 207q92 72 223 72q137 0 307 -74l-47 -128q-147 64 -260 64q-64 0 -104.5 -31t-40.5 -94q0 -51 35 -83q43 -37 140 -74
q62 -24 132 -59q58 -30 100 -72q80 -82 80 -179q0 -71 -28 -123q-56 -101 -187 -137q-63 -18 -129 -18zM537 1276h127l-169 -188h-145l-169 188h127l115 -77z" />
    <glyph glyph-name="uni0162" unicode="&#x162;" horiz-adv-x="928" 
d="M429 -123l37 123h-32v1132h-378v150h929v-150h-377v-1132h-32l-25 -78q41 -4 75.5 -18t61 -43.5t26.5 -70.5q0 -159 -268 -171q-62 -2 -81 -2v105h14q51 0 100 11q78 18 78 66q0 49 -128 78z" />
    <glyph glyph-name="uni0163" unicode="&#x163;" horiz-adv-x="623" 
d="M280 -123l37 123q-43 18 -72 51q-64 70 -64 222v568h-127v127h127v72l42 163h126v-235h168v-127h-168v-586q0 -67 28.5 -104t81.5 -37q41 0 90 10l22 -124q-75 -20 -135 -21h-16l-18 -57q41 -4 75.5 -18t61 -43.5t26.5 -70.5q0 -159 -269 -171q-60 -2 -80 -2v105h14
q50 0 99 11q79 18 79 66q0 49 -128 78z" />
    <glyph glyph-name="Tcaron" unicode="&#x164;" horiz-adv-x="929" 
d="M608 1132v-1132h-174v1132h-378v150h929v-150h-377zM637 1590h127l-169 -188h-145l-169 188h127l115 -77z" />
    <glyph glyph-name="tcaron" unicode="&#x165;" horiz-adv-x="787" 
d="M389 -21q-128 0 -191.5 72t-63.5 222v568h-127v127h127v72l42 163h126v-235h168v-127h-168v-586q0 -67 28.5 -104t81.5 -37q41 0 90 10l22 -124q-75 -20 -135 -21zM722 1147h-41v135h136v-95q0 -99 -69 -268l-67 30q37 96 41 198z" />
    <glyph glyph-name="Tbar" unicode="&#x166;" horiz-adv-x="1013" 
d="M926 577h-312v-577h-174v577h-314v127h314v428h-378v150h929v-150h-377v-428h312v-127z" />
    <glyph glyph-name="tbar" unicode="&#x167;" horiz-adv-x="674" 
d="M461 -21q-128 0 -191.5 72t-63.5 222v133h-127v126h127v309h-127v127h127v72l42 163h126v-235h168v-127h-168v-309h168v-126h-168v-151q0 -67 28.5 -104t81.5 -37q41 0 90 10l22 -124q-75 -20 -135 -21z" />
    <glyph glyph-name="Utilde" unicode="&#x168;" horiz-adv-x="1328" 
d="M648 -21q-241 0 -383 163q-127 151 -127 373v767h174v-767q0 -149 74 -256q94 -130 262 -130t261 130q74 107 74 256v767h174v-767q0 -222 -127 -373q-142 -163 -382 -163zM776 1413q-46 0 -113 40q-65 38 -102 38q-44 0 -81 -52l-49 41q20 42 57 75.5t81 33.5
q45 0 113 -40q62 -37 101 -37q45 0 82 51l48 -41q-17 -40 -55.5 -74.5t-81.5 -34.5z" />
    <glyph glyph-name="utilde" unicode="&#x169;" horiz-adv-x="1144" 
d="M503 -20q-161 0 -263 91.5t-102 246.5v650h168v-650q0 -89 52 -144q53 -56 145 -56q173 0 294 138v712h168v-968h-126l-28 108q-137 -128 -308 -128zM689 1099q-46 0 -113 40q-65 38 -102 38q-44 0 -81 -52l-49 41q20 42 57 75.5t81 33.5q45 0 113 -40q62 -37 101 -37
q45 0 82 51l48 -41q-17 -40 -55.5 -74.5t-81.5 -34.5z" />
    <glyph glyph-name="Umacron" unicode="&#x16a;" horiz-adv-x="1328" 
d="M648 -21q-241 0 -383 163q-127 151 -127 373v767h174v-767q0 -149 74 -256q94 -130 262 -130t261 130q74 107 74 256v767h174v-767q0 -222 -127 -373q-142 -163 -382 -163zM873 1529v-127h-400v127h400z" />
    <glyph glyph-name="umacron" unicode="&#x16b;" horiz-adv-x="1144" 
d="M503 -20q-161 0 -263 91.5t-102 246.5v650h168v-650q0 -89 52 -144q53 -56 145 -56q173 0 294 138v712h168v-968h-126l-28 108q-137 -128 -308 -128zM785 1215v-127h-400v127h400z" />
    <glyph glyph-name="Ubreve" unicode="&#x16c;" horiz-adv-x="1328" 
d="M648 -21q-241 0 -383 163q-127 151 -127 373v767h174v-767q0 -149 74 -256q94 -130 262 -130t261 130q74 107 74 256v767h174v-767q0 -222 -127 -373q-142 -163 -382 -163zM673 1402q-66 0 -125.5 34t-101.5 99l67 67q61 -70 160 -70q98 0 159 70l68 -67
q-43 -65 -102.5 -99t-124.5 -34z" />
    <glyph glyph-name="ubreve" unicode="&#x16d;" horiz-adv-x="1144" 
d="M503 -20q-161 0 -263 91.5t-102 246.5v650h168v-650q0 -89 52 -144q53 -56 145 -56q173 0 294 138v712h168v-968h-126l-28 108q-137 -128 -308 -128zM586 1088q-66 0 -125.5 34t-101.5 99l67 67q61 -70 160 -70q98 0 159 70l68 -67q-43 -65 -102.5 -99t-124.5 -34z" />
    <glyph glyph-name="Uring" unicode="&#x16e;" horiz-adv-x="1328" 
d="M648 -21q-241 0 -383 163q-127 151 -127 373v767h174v-767q0 -149 74 -256q94 -130 262 -130t261 130q74 107 74 256v767h174v-767q0 -222 -127 -373q-142 -163 -382 -163zM673 1362q-55 0 -96 39q-39 41 -39 96q0 56 39 95q40 40 96 40t95 -40q40 -39 40 -95t-40 -96
q-39 -39 -95 -39zM673 1451q19 0 32.5 13.5t13.5 32.5t-13.5 32.5t-32.5 13.5t-32.5 -13.5t-13.5 -32.5t13.5 -32.5t32.5 -13.5z" />
    <glyph glyph-name="uring" unicode="&#x16f;" horiz-adv-x="1144" 
d="M503 -20q-161 0 -263 91.5t-102 246.5v650h168v-650q0 -89 52 -144q53 -56 145 -56q173 0 294 138v712h168v-968h-126l-28 108q-137 -128 -308 -128zM585 1048q-55 0 -96 39q-39 41 -39 96q0 56 39 95q40 40 96 40t95 -40q40 -39 40 -95t-40 -96q-39 -39 -95 -39z
M585 1137q19 0 32.5 13.5t13.5 32.5t-13.5 32.5t-32.5 13.5t-32.5 -13.5t-13.5 -32.5t13.5 -32.5t32.5 -13.5z" />
    <glyph glyph-name="Uhungarumlaut" unicode="&#x170;" horiz-adv-x="1328" 
d="M648 -21q-241 0 -383 163q-127 151 -127 373v767h174v-767q0 -149 74 -256q94 -130 262 -130t261 130q74 107 74 256v767h174v-767q0 -222 -127 -373q-142 -163 -382 -163zM515 1402h-139l93 188h204zM811 1402h-139l93 188h204z" />
    <glyph glyph-name="uhungarumlaut" unicode="&#x171;" horiz-adv-x="1144" 
d="M503 -20q-161 0 -263 91.5t-102 246.5v650h168v-650q0 -89 52 -144q53 -56 145 -56q173 0 294 138v712h168v-968h-126l-28 108q-137 -128 -308 -128zM428 1088h-139l93 188h204zM724 1088h-139l93 188h204z" />
    <glyph glyph-name="Uogonek" unicode="&#x172;" horiz-adv-x="1321" 
d="M806 -278v-104q-105 0 -165 19q-94 30 -94 115q0 83 64 168q22 29 47 59q-251 0 -393 163q-127 151 -127 373v767h174v-767q0 -149 74 -256q94 -130 262 -130t261 130q74 107 74 256v767h174v-767q0 -222 -127 -373q-92 -106 -225 -143l-21 -25q-101 -119 -101 -185
q0 -67 123 -67z" />
    <glyph glyph-name="uogonek" unicode="&#x173;" horiz-adv-x="1134" 
d="M830 0l-28 108q-137 -128 -308 -128q-161 0 -263 91.5t-102 246.5v650h168v-650q0 -89 52 -144q53 -56 145 -56q172 0 294 138v712h168v-968l-22 -26q-100 -117 -102 -182q0 -70 124 -70v-104q-106 0 -166 19q-94 30 -94 115q0 83 64 168q29 38 70 80z" />
    <glyph glyph-name="Wcircumflex" unicode="&#x174;" horiz-adv-x="1740" 
d="M1719 1282l-352 -1282h-189l-294 1095l-295 -1095h-189l-352 1282h178l277 -1061l288 1061h195l288 -1061l278 1061h167zM968 1590l169 -188h-127l-114 77l-115 -77h-127l169 188h145z" />
    <glyph glyph-name="wcircumflex" unicode="&#x175;" horiz-adv-x="1405" 
d="M1346 968l-246 -968h-215l-185 750l-186 -750h-214l-246 968h161l199 -817l204 817h164l204 -817l199 817h161zM789 1276l169 -188h-127l-114 77l-115 -77h-127l169 188h145z" />
    <glyph glyph-name="Ycircumflex" unicode="&#x176;" horiz-adv-x="1037" 
d="M641 543v-543h-174v543l-468 739h206l354 -594l353 594h197zM636 1590l169 -188h-127l-114 77l-115 -77h-127l169 188h145z" />
    <glyph glyph-name="ycircumflex" unicode="&#x177;" horiz-adv-x="962" 
d="M227 -385q-89 0 -182 37l33 124q76 -24 124 -24q104 0 147 117l75 210h-59l-342 889h172l277 -757l276 757h176l-430 -1154q-38 -98 -107 -148.5t-160 -50.5zM569 1276l169 -188h-127l-114 77l-115 -77h-127l169 188h145z" />
    <glyph glyph-name="Ydieresis" unicode="&#x178;" horiz-adv-x="1037" 
d="M641 543v-543h-174v543l-468 739h206l354 -594l353 594h197zM504 1571v-169h-169v169h169zM793 1571v-169h-169v169h169z" />
    <glyph glyph-name="Zacute" unicode="&#x179;" horiz-adv-x="1084" 
d="M1034 140v-140h-945v98l702 1044h-702v140h945v-98l-702 -1044h702zM610 1402h-139l93 188h204z" />
    <glyph glyph-name="zacute" unicode="&#x17a;" horiz-adv-x="888" 
d="M806 127v-127h-749v95l537 746h-502v127h714v-95l-536 -746h536zM489 1088h-139l93 188h204z" />
    <glyph glyph-name="Zdotaccent" unicode="&#x17b;" horiz-adv-x="1084" 
d="M1034 140v-140h-945v98l702 1044h-702v140h945v-98l-702 -1044h702zM655 1571v-169h-169v169h169z" />
    <glyph glyph-name="zdotaccent" unicode="&#x17c;" horiz-adv-x="888" 
d="M806 127v-127h-749v95l537 746h-502v127h714v-95l-536 -746h536zM533 1257v-169h-169v169h169z" />
    <glyph glyph-name="Zcaron" unicode="&#x17d;" horiz-adv-x="1084" 
d="M1034 140v-140h-945v98l702 1044h-702v140h945v-98l-702 -1044h702zM685 1590h127l-169 -188h-145l-169 188h127l115 -77z" />
    <glyph glyph-name="zcaron" unicode="&#x17e;" horiz-adv-x="888" 
d="M806 127v-127h-749v95l537 746h-502v127h714v-95l-536 -746h536zM563 1276h127l-169 -188h-145l-169 188h127l115 -77z" />
    <glyph glyph-name="longs" unicode="&#x17f;" horiz-adv-x="530" 
d="M181 -125v1134q0 294 282 294q59 0 117 -15l-23 -127q-40 8 -76 8q-132 0 -132 -141v-1134q0 -294 -282 -294q-59 0 -117 15l23 127q40 -8 76 -8q132 0 132 141z" />
    <glyph glyph-name="uni0218" unicode="&#x218;" horiz-adv-x="1042" 
d="M491 -22q-228 1 -428 111l74 128q94 -48 170 -70q83 -23 189 -23q126 0 205 51q80 53 80 155q0 58 -45 106q-64 68 -243 136q-98 38 -165 71q-64 31 -120 78q-53 45 -80.5 108.5t-27.5 133.5q0 153 103 243q112 97 294 97q223 0 434 -111l-73 -128q-187 94 -366 94
q-91 0 -155 -45q-63 -43 -63 -134q0 -95 72 -148q64 -48 226 -110q86 -34 163 -74q83 -42 141 -108q80 -92 80 -198q0 -97 -39 -164q-77 -131 -256 -177q-82 -22 -170 -22zM501 -235h-41v135h136v-95q0 -99 -69 -268l-67 30q37 96 41 198z" />
    <glyph glyph-name="uni0219" unicode="&#x219;" horiz-adv-x="824" 
d="M403 -20q-161 0 -324 74l47 129q157 -65 266 -65q185 0 185 129q0 47 -39 82q-45 40 -153 83q-148 60 -213 119q-81 77 -81 178q0 137 91 207q92 72 223 72q137 0 307 -74l-47 -128q-147 64 -260 64q-64 0 -104.5 -31t-40.5 -94q0 -51 35 -83q43 -37 140 -74
q62 -24 132 -59q58 -30 100 -72q80 -82 80 -179q0 -71 -28 -123q-56 -101 -187 -137q-63 -18 -129 -18zM396 -235h-41v135h136v-95q0 -99 -69 -268l-67 30q37 96 41 198z" />
    <glyph glyph-name="uni021A" unicode="&#x21a;" horiz-adv-x="929" 
d="M608 1132v-1132h-174v1132h-378v150h929v-150h-377zM496 -235h-41v135h136v-95q0 -99 -69 -268l-67 30q37 96 41 198z" />
    <glyph glyph-name="uni021B" unicode="&#x21b;" horiz-adv-x="623" 
d="M447 -21q-128 0 -191.5 72t-63.5 222v568h-127v127h127v72l42 163h126v-235h168v-127h-168v-586q0 -67 28.5 -104t81.5 -37q41 0 90 10l22 -124q-75 -20 -135 -21zM343 -235h-41v135h136v-95q0 -99 -69 -268l-67 30q37 96 41 198z" />
    <glyph glyph-name="uni0232" unicode="&#x232;" horiz-adv-x="1037" 
d="M641 543v-543h-174v543l-468 739h206l354 -594l353 594h197zM764 1529v-127h-400v127h400z" />
    <glyph glyph-name="uni0233" unicode="&#x233;" horiz-adv-x="962" 
d="M227 -385q-89 0 -182 37l33 124q76 -24 124 -24q104 0 147 117l75 210h-59l-342 889h172l277 -757l276 757h176l-430 -1154q-38 -98 -107 -148.5t-160 -50.5zM697 1215v-127h-400v127h400z" />
    <glyph glyph-name="uni0237" unicode="&#x237;" horiz-adv-x="484" 
d="M31 -385q-59 2 -113 16l23 127q40 -8 75 -8q132 0 132 141v1077h169v-1059q0 -294 -286 -294z" />
    <glyph glyph-name="uni02BB" unicode="&#x2bb;" horiz-adv-x="226" 
d="M125 1229h41v-135h-136v95q0 99 69 268l67 -30q-37 -96 -41 -198z" />
    <glyph glyph-name="uni02BC" unicode="&#x2bc;" horiz-adv-x="226" 
d="M71 1322h-41v135h136v-95q0 -98 -69 -268l-67 30q37 96 41 198z" />
    <glyph glyph-name="circumflex" unicode="&#x2c6;" horiz-adv-x="783" 
d="M464 1276l169 -188h-127l-114 77l-115 -77h-127l169 188h145z" />
    <glyph glyph-name="caron" unicode="&#x2c7;" horiz-adv-x="783" 
d="M506 1276h127l-169 -188h-145l-169 188h127l115 -77z" />
    <glyph glyph-name="uni02C9" unicode="&#x2c9;" horiz-adv-x="700" 
d="M550 1215v-127h-400v127h400z" />
    <glyph glyph-name="uni02CA" unicode="&#x2ca;" horiz-adv-x="597" 
d="M289 1088h-139l93 188h204z" />
    <glyph glyph-name="uni02CB" unicode="&#x2cb;" horiz-adv-x="597" 
d="M355 1276l92 -188h-138l-159 188h205z" />
    <glyph glyph-name="uni02CD" unicode="&#x2cd;" horiz-adv-x="651" 
d="M607 -120v-127h-619v127h619z" />
    <glyph glyph-name="breve" unicode="&#x2d8;" horiz-adv-x="754" 
d="M377 1088q-66 0 -125.5 34t-101.5 99l67 67q61 -70 160 -70q98 0 159 70l68 -67q-43 -65 -102.5 -99t-124.5 -34z" />
    <glyph glyph-name="dotaccent" unicode="&#x2d9;" horiz-adv-x="469" 
d="M319 1257v-169h-169v169h169z" />
    <glyph glyph-name="ring" unicode="&#x2da;" horiz-adv-x="570" 
d="M285 1048q-55 0 -96 39q-39 41 -39 96q0 56 39 95q40 40 96 40t95 -40q40 -39 40 -95t-40 -96q-39 -39 -95 -39zM285 1137q19 0 32.5 13.5t13.5 32.5t-13.5 32.5t-32.5 13.5t-32.5 -13.5t-13.5 -32.5t13.5 -32.5t32.5 -13.5z" />
    <glyph glyph-name="ogonek" unicode="&#x2db;" horiz-adv-x="560" 
d="M410 -278v-104q-106 0 -166 19q-94 30 -94 115q0 83 64 168q42 54 65 80h131l-22 -26q-100 -117 -102 -182q0 -70 124 -70z" />
    <glyph glyph-name="tilde" unicode="&#x2dc;" horiz-adv-x="782" 
d="M495 1099q-46 0 -113 40q-65 38 -102 38q-44 0 -81 -52l-49 41q20 42 57 75.5t81 33.5q45 0 113 -40q62 -37 101 -37q44 0 82 51l48 -41q-17 -40 -55.5 -74.5t-81.5 -34.5z" />
    <glyph glyph-name="hungarumlaut" unicode="&#x2dd;" horiz-adv-x="1024" 
d="M141 1088h-139l93 188h204zM437 1088h-139l93 188h204z" />
    <glyph glyph-name="uni02F7" unicode="&#x2f7;" horiz-adv-x="782" 
d="M495 -296q-46 0 -113 40q-64 37 -102 37q-44 0 -81 -51l-49 41q20 42 57 75.5t81 33.5q45 0 113 -40q62 -37 101 -37q44 0 82 51l48 -41q-17 -40 -55.5 -74.5t-81.5 -34.5z" />
    <glyph glyph-name="gravecomb" unicode="&#x300;" 
d="M-496 1276l93 -188h-139l-158 188h204z" />
    <glyph glyph-name="acutecomb" unicode="&#x301;" 
d="M-532 1088h-138l92 188h205z" />
    <glyph glyph-name="uni0302" unicode="&#x302;" 
d="M-476 1276l168 -188h-127l-114 77l-114 -77h-127l168 188h146z" />
    <glyph glyph-name="tildecomb" unicode="&#x303;" 
d="M-415 1099q-46 0 -113 40q-65 38 -102 38q-44 0 -81 -52l-49 41q20 42 57 75.5t81 33.5q45 0 113 -40q62 -37 101 -37q44 0 82 51l48 -41q-17 -40 -55.5 -74.5t-81.5 -34.5z" />
    <glyph glyph-name="uni0304" unicode="&#x304;" 
d="M-340 1215v-127h-400v127h400z" />
    <glyph glyph-name="uni0305" unicode="&#x305;" 
d="M2108 1536v-127h-904v127h904z" />
    <glyph glyph-name="uni0306" unicode="&#x306;" 
d="M-533 1088q-65 0 -124.5 34t-102.5 99l67 67q63 -70 160 -70t160 70l67 -67q-42 -65 -102 -99t-125 -34z" />
    <glyph glyph-name="uni0307" unicode="&#x307;" 
d="M-442 1257v-169h-168v169h168z" />
    <glyph glyph-name="uni0308" unicode="&#x308;" 
d="M-601 1257v-169h-169v169h169zM-312 1257v-169h-169v169h169z" />
    <glyph glyph-name="uni0310" unicode="&#x310;" 
d="M-840 1088q-65 0 -124.5 34t-102.5 99l67 67q63 -70 160 -70t160 70l67 -67q-42 -65 -102 -99t-125 -34zM-756 1457v-169h-168v169h168z" />
    <glyph glyph-name="uni0315" unicode="&#x315;" horiz-adv-x="226" 
d="M91 1147h-41v135h136v-95q0 -99 -69 -268l-67 30q37 96 41 198z" />
    <glyph glyph-name="dotbelowcomb" unicode="&#x323;" 
d="M-396 -120v-164h-164v164h164z" />
    <glyph glyph-name="uni0324" unicode="&#x324;" 
d="M-531 -120v-169h-169v169h169zM-242 -120v-169h-169v169h169z" />
    <glyph glyph-name="uni0325" unicode="&#x325;" 
d="M-465 -390q-56 0 -95 40q-40 39 -40 95t40 96q39 39 95 39q55 0 96 -39q39 -41 39 -96q0 -56 -39 -95q-40 -40 -96 -40zM-465 -301q19 0 32.5 13.5t13.5 32.5t-13.5 32.5t-32.5 13.5t-32.5 -13.5t-13.5 -32.5t13.5 -32.5t32.5 -13.5z" />
    <glyph glyph-name="uni0326" unicode="&#x326;" 
d="M-489 -235h-41v135h136v-95q0 -99 -69 -268l-67 30q37 96 41 198z" />
    <glyph glyph-name="uni1E0C" unicode="&#x1e0c;" horiz-adv-x="1365" 
d="M628 0h-458v1282h458q296 0 472 -195q157 -179 157 -446t-157 -446q-176 -195 -472 -195zM344 140h284q105 -1 192 39t144 109t88 160t31 193t-31 193t-88 160t-144 109t-192 39h-284v-1002zM823 -120v-164h-164v164h164z" />
    <glyph glyph-name="uni1E0D" unicode="&#x1e0d;" horiz-adv-x="1185" 
d="M499 -20q-104 -1 -187.5 35.5t-137 101.5t-82 151t-28.5 186q0 143 53.5 263t161 195.5t250.5 75.5q164 0 294 -115v409h168v-1282h-126l-34 132q-81 -73 -160 -112.5t-172 -39.5zM499 118q90 0 175 50.5t149 128.5v415q-121 138 -294 138q-144 0 -225 -130
q-72 -114 -72 -266q0 -138 62 -230q69 -106 205 -106zM641 -120v-164h-164v164h164z" />
    <glyph glyph-name="uni1E24" unicode="&#x1e24;" horiz-adv-x="1396" 
d="M1183 1282v-1282h-174v576h-665v-576h-174v1282h174v-565h665v565h174zM786 -120v-164h-164v164h164z" />
    <glyph glyph-name="uni1E25" unicode="&#x1e25;" horiz-adv-x="1155" 
d="M993 650v-650h-168v650q0 91 -46 145.5t-135 54.5q-163 0 -309 -179v-671h-168v1282h168v-459q138 165 324 165q157 0 245 -91q89 -91 89 -247zM695 -120v-164h-164v164h164z" />
    <glyph glyph-name="uni1E32" unicode="&#x1e32;" horiz-adv-x="1190" 
d="M637 647l556 -647h-211l-496 576h-142v-576h-174v1282h174v-565h152l486 565h202zM792 -120v-164h-164v164h164z" />
    <glyph glyph-name="uni1E33" unicode="&#x1e33;" horiz-adv-x="1019" 
d="M578 552l426 -552h-194l-378 488h-97v-488h-168v1282h168v-667h101l337 353h203zM700 -120v-164h-164v164h164z" />
    <glyph glyph-name="uni1E36" unicode="&#x1e36;" horiz-adv-x="949" 
d="M933 140v-140h-763v1282h174v-1142h589zM661 -120v-164h-164v164h164z" />
    <glyph glyph-name="uni1E37" unicode="&#x1e37;" horiz-adv-x="564" 
d="M411 -21q-128 0 -191.5 72t-63.5 222v1009h168v-1027q0 -67 28 -104t82 -37q45 0 89 10l22 -124q-73 -19 -134 -21zM471 -120v-164h-164v164h164z" />
    <glyph glyph-name="uni1E38" unicode="&#x1e38;" horiz-adv-x="949" 
d="M933 140v-140h-763v1282h174v-1142h589zM492 1529v-127h-400v127h400zM661 -120v-164h-164v164h164z" />
    <glyph glyph-name="uni1E39" unicode="&#x1e39;" horiz-adv-x="564" 
d="M411 -21q-128 0 -191.5 72t-63.5 222v1009h168v-1027q0 -67 28 -104t82 -37q45 0 89 10l22 -124q-73 -19 -134 -21zM485 1529v-127h-400v127h400zM471 -120v-164h-164v164h164z" />
    <glyph glyph-name="uni1E3A" unicode="&#x1e3a;" horiz-adv-x="949" 
d="M933 140v-140h-763v1282h174v-1142h589zM888 -120v-127h-619v127h619z" />
    <glyph glyph-name="uni1E3B" unicode="&#x1e3b;" horiz-adv-x="593" 
d="M418 -21q-128 0 -191.5 72t-63.5 222v1009h168v-1027q0 -67 28 -104t82 -37q45 0 89 10l22 -124q-73 -19 -134 -21zM557 -177v-127h-400v127h400z" />
    <glyph glyph-name="uni1E40" unicode="&#x1e40;" horiz-adv-x="1653" 
d="M1442 1282v-1282h-169v1014l-467 -713l-467 713v-1014h-169v1282h170l466 -711l465 711h171zM918 1571v-169h-169v169h169z" />
    <glyph glyph-name="uni1E41" unicode="&#x1e41;" horiz-adv-x="1660" 
d="M1503 650v-650h-168v650q0 86 -41 143t-125 57q-141 0 -255 -138v-712h-169v650q0 118 -69 172q-35 28 -96 28q-152 0 -256 -138v-712h-168v968h126l28 -108q122 128 277 128q89 0 162.5 -38t117.5 -111q137 149 309 149q152 0 239.5 -94.5t87.5 -243.5zM954 1257v-169
h-169v169h169z" />
    <glyph glyph-name="uni1E42" unicode="&#x1e42;" horiz-adv-x="1653" 
d="M1442 1282v-1282h-169v1014l-467 -713l-467 713v-1014h-169v1282h170l466 -711l465 711h171zM916 -120v-164h-164v164h164z" />
    <glyph glyph-name="uni1E43" unicode="&#x1e43;" horiz-adv-x="1660" 
d="M1503 650v-650h-168v650q0 86 -41 143t-125 57q-141 0 -255 -138v-712h-169v650q0 118 -69 172q-35 28 -96 28q-152 0 -256 -138v-712h-168v968h126l28 -108q122 128 277 128q89 0 162.5 -38t117.5 -111q137 149 309 149q152 0 239.5 -94.5t87.5 -243.5zM951 -120v-164
h-164v164h164z" />
    <glyph glyph-name="uni1E44" unicode="&#x1e44;" horiz-adv-x="1387" 
d="M1174 1282v-1282h-171l-664 1004v-1004h-169v1282h171l664 -1004v1004h169zM785 1571v-169h-169v169h169z" />
    <glyph glyph-name="uni1E45" unicode="&#x1e45;" horiz-adv-x="1137" 
d="M983 650v-650h-168v650q0 88 -53 144t-144 56q-174 0 -294 -138v-712h-168v968h126l28 -108q137 128 308 128q161 0 263 -91.5t102 -246.5zM694 1257v-169h-169v169h169z" />
    <glyph glyph-name="uni1E46" unicode="&#x1e46;" horiz-adv-x="1387" 
d="M1174 1282v-1282h-171l-664 1004v-1004h-169v1282h171l664 -1004v1004h169zM782 -120v-164h-164v164h164z" />
    <glyph glyph-name="uni1E47" unicode="&#x1e47;" horiz-adv-x="1137" 
d="M983 650v-650h-168v650q0 88 -53 144t-144 56q-174 0 -294 -138v-712h-168v968h126l28 -108q137 128 308 128q161 0 263 -91.5t102 -246.5zM691 -120v-164h-164v164h164z" />
    <glyph glyph-name="uni1E48" unicode="&#x1e48;" horiz-adv-x="1387" 
d="M1174 1282v-1282h-171l-664 1004v-1004h-169v1282h171l664 -1004v1004h169zM1009 -120v-127h-619v127h619z" />
    <glyph glyph-name="uni1E49" unicode="&#x1e49;" horiz-adv-x="1137" 
d="M983 650v-650h-168v650q0 88 -53 144t-144 56q-174 0 -294 -138v-712h-168v968h126l28 -108q137 128 308 128q161 0 263 -91.5t102 -246.5zM918 -120v-127h-619v127h619z" />
    <glyph glyph-name="uni1E58" unicode="&#x1e58;" horiz-adv-x="1179" 
d="M344 710h305q101 0 174 57.5t73 158.5q0 99 -73 157.5t-174 58.5h-305v-432zM773 583l345 -583h-186l-337 569h-251v-569h-174v1282h479q150 0 262 -74q159 -106 159 -282q0 -177 -159 -283q-63 -43 -138 -60zM757 1571v-169h-169v169h169z" />
    <glyph glyph-name="uni1E59" unicode="&#x1e59;" horiz-adv-x="682" 
d="M324 711v-711h-168v968h126l29 -112q122 132 246 132q43 0 104 -16l-39 -146q-39 8 -81 9q-66 -1 -122.5 -34t-94.5 -90zM533 1257v-169h-169v169h169z" />
    <glyph glyph-name="uni1E5A" unicode="&#x1e5a;" horiz-adv-x="1179" 
d="M344 710h305q101 0 174 57.5t73 158.5q0 99 -73 157.5t-174 58.5h-305v-432zM773 583l345 -583h-186l-337 569h-251v-569h-174v1282h479q150 0 262 -74q159 -106 159 -282q0 -177 -159 -283q-63 -43 -138 -60zM754 -120v-164h-164v164h164z" />
    <glyph glyph-name="uni1E5B" unicode="&#x1e5b;" horiz-adv-x="682" 
d="M324 711v-711h-168v968h126l29 -112q122 132 246 132q43 0 104 -16l-39 -146q-39 8 -81 9q-66 -1 -122.5 -34t-94.5 -90zM320 -120v-164h-164v164h164z" />
    <glyph glyph-name="uni1E5C" unicode="&#x1e5c;" horiz-adv-x="1179" 
d="M344 710h305q101 0 174 57.5t73 158.5q0 99 -73 157.5t-174 58.5h-305v-432zM773 583l345 -583h-186l-337 569h-251v-569h-174v1282h479q150 0 262 -74q159 -106 159 -282q0 -177 -159 -283q-63 -43 -138 -60zM872 1529v-127h-400v127h400zM754 -120v-164h-164v164h164z
" />
    <glyph glyph-name="uni1E5D" unicode="&#x1e5d;" horiz-adv-x="682" 
d="M324 711v-711h-168v968h126l29 -112q122 132 246 132q43 0 104 -16l-39 -146q-39 8 -81 9q-66 -1 -122.5 -34t-94.5 -90zM555 1215v-127h-400v127h400zM320 -120v-164h-164v164h164z" />
    <glyph glyph-name="uni1E5E" unicode="&#x1e5e;" horiz-adv-x="1179" 
d="M344 710h305q101 0 174 57.5t73 158.5q0 99 -73 157.5t-174 58.5h-305v-432zM773 583l345 -583h-186l-337 569h-251v-569h-174v1282h479q150 0 262 -74q159 -106 159 -282q0 -177 -159 -283q-63 -43 -138 -60zM981 -120v-127h-619v127h619z" />
    <glyph glyph-name="uni1E5F" unicode="&#x1e5f;" horiz-adv-x="659" 
d="M301 711v-711h-168v968h126l29 -112q122 132 246 132q43 0 104 -16l-39 -146q-39 8 -81 9q-66 -1 -122.5 -34t-94.5 -90zM421 -177v-127h-400v127h400z" />
    <glyph glyph-name="uni1E62" unicode="&#x1e62;" horiz-adv-x="1042" 
d="M491 -22q-228 1 -428 111l74 128q94 -48 170 -70q83 -23 189 -23q126 0 205 51q80 53 80 155q0 58 -45 106q-64 68 -243 136q-98 38 -165 71q-64 31 -120 78q-53 45 -80.5 108.5t-27.5 133.5q0 153 103 243q112 97 294 97q223 0 434 -111l-73 -128q-187 94 -366 94
q-91 0 -155 -45q-63 -43 -63 -134q0 -95 72 -148q64 -48 226 -110q86 -34 163 -74q83 -42 141 -108q80 -92 80 -198q0 -97 -39 -164q-77 -131 -256 -177q-82 -22 -170 -22zM609 -120v-164h-164v164h164z" />
    <glyph glyph-name="uni1E63" unicode="&#x1e63;" horiz-adv-x="824" 
d="M403 -20q-161 0 -324 74l47 129q157 -65 266 -65q185 0 185 129q0 47 -39 82q-45 40 -153 83q-148 60 -213 119q-81 77 -81 178q0 137 91 207q92 72 223 72q137 0 307 -74l-47 -128q-147 64 -260 64q-64 0 -104.5 -31t-40.5 -94q0 -51 35 -83q43 -37 140 -74
q62 -24 132 -59q58 -30 100 -72q80 -82 80 -179q0 -71 -28 -123q-56 -101 -187 -137q-63 -18 -129 -18zM505 -120v-164h-164v164h164z" />
    <glyph glyph-name="uni1E6C" unicode="&#x1e6c;" horiz-adv-x="929" 
d="M608 1132v-1132h-174v1132h-378v150h929v-150h-377zM605 -120v-164h-164v164h164z" />
    <glyph glyph-name="uni1E6D" unicode="&#x1e6d;" horiz-adv-x="623" 
d="M447 -21q-128 0 -191.5 72t-63.5 222v568h-127v127h127v72l42 163h126v-235h168v-127h-168v-586q0 -67 28.5 -104t81.5 -37q41 0 90 10l22 -124q-75 -20 -135 -21zM452 -120v-164h-164v164h164z" />
    <glyph glyph-name="Wgrave" unicode="&#x1e80;" horiz-adv-x="1740" 
d="M1719 1282l-352 -1282h-189l-294 1095l-295 -1095h-189l-352 1282h178l277 -1061l288 1061h195l288 -1061l278 1061h167zM903 1590l92 -188h-138l-159 188h205z" />
    <glyph glyph-name="wgrave" unicode="&#x1e81;" horiz-adv-x="1405" 
d="M1346 968l-246 -968h-215l-185 750l-186 -750h-214l-246 968h161l199 -817l204 817h164l204 -817l199 817h161zM724 1276l92 -188h-138l-159 188h205z" />
    <glyph glyph-name="Wacute" unicode="&#x1e82;" horiz-adv-x="1740" 
d="M1719 1282l-352 -1282h-189l-294 1095l-295 -1095h-189l-352 1282h178l277 -1061l288 1061h195l288 -1061l278 1061h167zM935 1402h-139l93 188h204z" />
    <glyph glyph-name="wacute" unicode="&#x1e83;" horiz-adv-x="1405" 
d="M1346 968l-246 -968h-215l-185 750l-186 -750h-214l-246 968h161l199 -817l204 817h164l204 -817l199 817h161zM756 1088h-139l93 188h204z" />
    <glyph glyph-name="Wdieresis" unicode="&#x1e84;" horiz-adv-x="1740" 
d="M1719 1282l-352 -1282h-189l-294 1095l-295 -1095h-189l-352 1282h178l277 -1061l288 1061h195l288 -1061l278 1061h167zM836 1571v-169h-169v169h169zM1125 1571v-169h-169v169h169z" />
    <glyph glyph-name="wdieresis" unicode="&#x1e85;" horiz-adv-x="1405" 
d="M1346 968l-246 -968h-215l-185 750l-186 -750h-214l-246 968h161l199 -817l204 817h164l204 -817l199 817h161zM657 1257v-169h-169v169h169zM946 1257v-169h-169v169h169z" />
    <glyph glyph-name="uni1E88" unicode="&#x1e88;" horiz-adv-x="1740" 
d="M1719 1282l-352 -1282h-189l-294 1095l-295 -1095h-189l-352 1282h178l277 -1061l288 1061h195l288 -1061l278 1061h167zM978 -120v-164h-164v164h164z" />
    <glyph glyph-name="uni1E89" unicode="&#x1e89;" horiz-adv-x="1405" 
d="M1346 968l-246 -968h-215l-185 750l-186 -750h-214l-246 968h161l199 -817l204 817h164l204 -817l199 817h161zM799 -120v-164h-164v164h164z" />
    <glyph glyph-name="uni1E92" unicode="&#x1e92;" horiz-adv-x="1084" 
d="M1034 140v-140h-945v98l702 1044h-702v140h945v-98l-702 -1044h702zM652 -120v-164h-164v164h164z" />
    <glyph glyph-name="uni1E93" unicode="&#x1e93;" horiz-adv-x="888" 
d="M806 127v-127h-749v95l537 746h-502v127h714v-95l-536 -746h536zM531 -120v-164h-164v164h164z" />
    <glyph glyph-name="uni1EBC" unicode="&#x1ebc;" horiz-adv-x="1077" 
d="M990 140v-140h-820v1282h820v-140h-646v-425h599v-141h-599v-436h646zM712 1413q-46 0 -113 40q-65 38 -102 38q-44 0 -81 -52l-49 41q20 42 57 75.5t81 33.5q45 0 113 -40q62 -37 101 -37q45 0 82 51l48 -41q-17 -40 -55.5 -74.5t-81.5 -34.5z" />
    <glyph glyph-name="uni1EBD" unicode="&#x1ebd;" horiz-adv-x="980" 
d="M243 547h489q0 303 -229 303q-125 0 -195 -97q-62 -86 -65 -206zM536 -20q-225 0 -345 136t-120 368q0 208 102 348q115 156 330 156q197 0 296 -131q87 -117 87 -305q0 -68 -12 -131h-631q14 -143 85.5 -223t207.5 -80q77 0 134 16q61 17 124 48l47 -130
q-150 -72 -305 -72zM605 1099q-46 0 -113 40q-65 38 -102 38q-44 0 -81 -52l-49 41q20 42 57 75.5t81 33.5q45 0 113 -40q62 -37 101 -37q44 0 82 51l48 -41q-17 -40 -55.5 -74.5t-81.5 -34.5z" />
    <glyph glyph-name="Ygrave" unicode="&#x1ef2;" horiz-adv-x="1037" 
d="M641 543v-543h-174v543l-468 739h206l354 -594l353 594h197zM571 1590l92 -188h-138l-159 188h205z" />
    <glyph glyph-name="ygrave" unicode="&#x1ef3;" horiz-adv-x="962" 
d="M227 -385q-89 0 -182 37l33 124q76 -24 124 -24q104 0 147 117l75 210h-59l-342 889h172l277 -757l276 757h176l-430 -1154q-38 -98 -107 -148.5t-160 -50.5zM503 1276l92 -188h-138l-159 188h205z" />
    <glyph glyph-name="uni1EF4" unicode="&#x1ef4;" horiz-adv-x="1037" 
d="M641 543v-543h-174v543l-468 739h206l354 -594l353 594h197zM646 -120v-164h-164v164h164z" />
    <glyph glyph-name="uni1EF5" unicode="&#x1ef5;" horiz-adv-x="962" 
d="M227 -385q-89 0 -182 37l33 124q76 -24 124 -24q104 0 147 117l75 210h-59l-342 889h172l277 -757l276 757h176l-430 -1154q-38 -98 -107 -148.5t-160 -50.5zM778 -120v-164h-164v164h164z" />
    <glyph glyph-name="endash" unicode="&#x2013;" horiz-adv-x="1024" 
d="M844 548v-127h-724v127h724z" />
    <glyph glyph-name="emdash" unicode="&#x2014;" horiz-adv-x="2048" 
d="M1688 548v-127h-1448v127h1448z" />
    <glyph glyph-name="quoteleft" unicode="&#x2018;" horiz-adv-x="284" 
d="M165 956h59v-193h-194v136q0 141 99 383l95 -43q-52 -138 -59 -283z" />
    <glyph glyph-name="quoteright" unicode="&#x2019;" horiz-adv-x="284" 
d="M89 1089h-59v193h194v-136q0 -142 -99 -383l-95 43q52 138 59 283z" />
    <glyph glyph-name="quotesinglbase" unicode="&#x201a;" horiz-adv-x="284" 
d="M89 0h-59v193h194v-136q0 -141 -99 -383l-95 43q52 138 59 283z" />
    <glyph glyph-name="quotedblleft" unicode="&#x201c;" horiz-adv-x="556" 
d="M165 956h59v-193h-194v136q0 141 99 383l95 -43q-52 -138 -59 -283zM437 956h59v-193h-194v136q0 141 99 383l95 -43q-52 -138 -59 -283z" />
    <glyph glyph-name="quotedblright" unicode="&#x201d;" horiz-adv-x="556" 
d="M89 1089h-59v193h194v-136q0 -142 -99 -383l-95 43q52 138 59 283zM361 1089h-59v193h194v-136q0 -142 -99 -383l-95 43q52 138 59 283z" />
    <glyph glyph-name="quotedblbase" unicode="&#x201e;" horiz-adv-x="556" 
d="M89 67h-59v193h194v-136q0 -142 -99 -383l-95 43q52 138 59 283zM361 67h-59v193h194v-136q0 -142 -99 -383l-95 43q52 138 59 283z" />
    <glyph glyph-name="dagger" unicode="&#x2020;" horiz-adv-x="1000" 
d="M900 974h-330v-1059h-140v1059h-330v126h330v300h140v-300h330v-126z" />
    <glyph glyph-name="daggerdbl" unicode="&#x2021;" horiz-adv-x="1000" 
d="M430 341v633h-330v126h330v300h140v-300h330v-126h-330v-633h330v-126h-330v-300h-140v300h-330v126h330z" />
    <glyph glyph-name="bullet" unicode="&#x2022;" horiz-adv-x="985" 
d="M493 297q-143 0 -243 100t-100 243q0 142 100 242q101 101 243 101q141 0 242 -101t101 -242q0 -142 -101 -243q-100 -100 -242 -100z" />
    <glyph glyph-name="ellipsis" unicode="&#x2026;" horiz-adv-x="2048" 
d="M243 193v-193h-193v193h193zM926 193v-193h-193v193h193zM1609 193v-193h-193v193h193z" />
    <glyph glyph-name="guilsinglleft" unicode="&#x2039;" horiz-adv-x="653" 
d="M503 125l-109 -64l-244 424l244 423l109 -64l-208 -359z" />
    <glyph glyph-name="guilsinglright" unicode="&#x203a;" horiz-adv-x="653" 
d="M503 485l-244 -424l-109 64l208 360l-208 359l109 64z" />
    <glyph glyph-name="fraction" unicode="&#x2044;" horiz-adv-x="229" 
d="M559 1282l-720 -1282h-139l722 1282h137z" />
    <glyph glyph-name="fraction" unicode="&#x2215;" horiz-adv-x="229" 
d="M559 1282l-720 -1282h-139l722 1282h137z" />
    <glyph glyph-name="uni2070" unicode="&#x2070;" horiz-adv-x="628" 
d="M330 736q63 0 97 55q38 62 38 178q0 171 -76 217q-24 15 -59 15q-62 0 -97 -54q-38 -62 -38 -178q0 -172 76 -218q24 -15 59 -15zM330 635q-63 0 -111.5 22t-76.5 56t-46 80.5t-24 88.5t-6 87q0 163 76 254q68 80 188 80q63 0 111.5 -22.5t76.5 -56.5t46.5 -80t24.5 -88
t6 -87q0 -163 -77 -255q-67 -79 -188 -79z" />
    <glyph glyph-name="uni2074" unicode="&#x2074;" horiz-adv-x="628" 
d="M495 778v-144h-129v144h-317v62l311 442h135v-408h88v-96h-88zM213 874h153v218z" />
    <glyph glyph-name="uni2075" unicode="&#x2075;" horiz-adv-x="640" 
d="M305 623q-119 2 -250 64l57 90q110 -52 192 -52q65 1 100.5 34t35.5 91t-35 91.5t-100 33.5q-83 0 -145 -54l-75 33l69 328h415v-100h-308l-25 -110q18 5 69 5q116 0 190 -64t74 -163t-74 -163t-190 -64z" />
    <glyph glyph-name="uni2076" unicode="&#x2076;" horiz-adv-x="629" 
d="M326 725q65 0 100 33.5t35 91.5t-35 91.5t-100 33.5t-100 -33.5t-35 -91.5t35 -91.5t100 -33.5zM326 623q-117 0 -190.5 64t-73.5 163q0 55 22 99q34 67 108 172l114 161h139l-141 -207q14 2 22 2q117 0 191 -64t74 -163t-74.5 -163t-190.5 -64z" />
    <glyph glyph-name="uni2077" unicode="&#x2077;" horiz-adv-x="642" 
d="M548 1221l-247 -587h-137l231 548h-323v100h476v-61z" />
    <glyph glyph-name="uni2078" unicode="&#x2078;" horiz-adv-x="629" 
d="M328 736q59 0 97 22.5t38 67.5q0 41 -50 68q-48 28 -101 31q-44 -12 -81 -39q-38 -26 -38 -60q0 -45 38 -67.5t97 -22.5zM344 1016q44 10 75 34.5t31 60.5q0 44 -34.5 67t-87.5 23t-87.5 -23t-34.5 -67q0 -42 43 -67q43 -24 95 -28zM328 635q-106 0 -179 46
q-86 54 -86 145q0 40 19 69q20 32 50 52q34 22 42 26q-7 4 -37 24q-60 44 -60 114q0 88 74 140t177 52t177 -52t74 -140q0 -37 -16 -65q-18 -31 -44 -49q-30 -20 -37 -24q12 -3 42 -25q69 -49 69 -122q0 -91 -86 -145q-73 -46 -179 -46z" />
    <glyph glyph-name="uni2079" unicode="&#x2079;" horiz-adv-x="630" 
d="M328 1203q-65 0 -100.5 -33t-35.5 -91q0 -60 35 -93t101 -33q65 0 100 33t35 93q0 58 -35.5 91t-99.5 33zM328 1305q116 0 190 -63.5t74 -162.5q0 -54 -23 -100q-36 -71 -108 -172l-113 -160h-139l141 207q-10 -3 -22 -3q-118 0 -191.5 64t-73.5 164q0 99 73.5 162.5
t191.5 63.5z" />
    <glyph glyph-name="Euro" unicode="&#x20ac;" horiz-adv-x="1378" 
d="M56 827h245q36 156 137 275q175 201 472 201q220 0 428 -111l-74 -128q-94 49 -171 70q-79 24 -183 24q-224 0 -354 -175q-51 -73 -76 -156h481v-127h-504q-2 -38 -2 -59t2 -61h504v-127h-480q25 -83 75 -154q130 -175 354 -175q102 0 183 23q79 23 171 71l74 -128
q-208 -111 -428 -111q-297 0 -472 201q-100 118 -136 273h-246v127h227q-2 40 -2 61t2 59h-227v127z" />
    <glyph glyph-name="trademark" unicode="&#x2122;" horiz-adv-x="1300" 
d="M306 1222v-453h-79v453h-170v60h418v-60h-169zM1114 1282v-513h-76v406l-210 -286l-210 286v-406h-76v513h76l210 -285l209 285h77z" />
    <glyph glyph-name="onethird" unicode="&#x2153;" horiz-adv-x="1520" 
d="M579 734v-100h-456v100h164v412l-115 -61l-54 87l205 110h93v-548h163zM1210 1282l-720 -1282h-139l722 1282h137zM1171 -30q-117 0 -249 63l56 90q112 -51 196 -51q58 0 95 22t37 68q0 43 -52 70q-52 28 -104 28h-66v91h66q56 0 99 25q44 26 44 70t-34.5 67t-87.5 23
q-73 0 -178 -44l-57 90q128 54 235 56q103 0 177 -52t74 -140q3 -48 -31 -88.5t-66 -49.5q35 -11 73 -53.5t38 -92.5q0 -92 -86 -146q-73 -46 -179 -46z" />
    <glyph glyph-name="twothirds" unicode="&#x2154;" horiz-adv-x="1512" 
d="M569 745v-100h-494v64q0 63 66 128q41 39 132 99q79 52 118 88q46 43 46 87q0 45 -32.5 67.5t-86.5 22.5q-80 0 -193 -51l-56 90q132 63 249 63q105 0 178 -52t73 -140q0 -108 -151 -213q-30 -22 -77 -52q-45 -29 -78 -52q-42 -29 -50 -49h356zM1202 1282l-720 -1282
h-139l722 1282h137zM1163 -30q-117 0 -249 63l56 90q112 -51 196 -51q58 0 95 22t37 68q0 43 -52 70q-52 28 -104 28h-66v91h66q56 0 99 25q44 26 44 70t-34.5 67t-87.5 23q-73 0 -178 -44l-57 90q128 54 235 56q103 0 177 -52t74 -140q3 -48 -31 -88.5t-66 -49.5
q35 -11 73 -53.5t38 -92.5q0 -92 -86 -146q-73 -46 -179 -46z" />
    <glyph glyph-name="minus" unicode="&#x2212;" horiz-adv-x="961" 
d="M913 577h-905v126h905v-126z" />
    <glyph glyph-name="approxequal" unicode="&#x2248;" horiz-adv-x="1204" 
d="M796 484q-52 0 -110 20.5t-100.5 44.5t-95.5 43.5t-96 18.5q-83 0 -153 -85l-91 68q34 68 105 123t153 55q52 0 110 -20.5t100.5 -44.5t95.5 -43.5t96 -18.5q83 0 153 85l91 -68q-34 -67 -105 -122.5t-153 -55.5zM796 196q-52 0 -110 20.5t-100.5 44.5t-95.5 43.5
t-96 18.5q-83 0 -153 -85l-91 68q34 68 105 123t153 55q52 0 110 -20.5t100.5 -44.5t95.5 -43.5t96 -18.5q83 0 153 85l91 -68q-34 -67 -105 -122.5t-153 -55.5z" />
    <glyph glyph-name="equivalence" unicode="&#x2261;" horiz-adv-x="961" 
d="M913 577h-905v126h905v-126zM913 325h-905v126h905v-126zM913 829h-905v126h905v-126z" />
    <glyph glyph-name="lessequal" unicode="&#x2264;" horiz-adv-x="989" 
d="M895 332v-143l-905 335v137l905 332v-145l-717 -256zM914 0h-905v126h905v-126z" />
    <glyph glyph-name="greaterequal" unicode="&#x2265;" horiz-adv-x="1012" 
d="M974 524l-905 -335v143l717 260l-717 256v145l905 -332v-137zM991 0h-905v126h905v-126z" />
    <glyph glyph-name="uniE007" unicode="&#xe007;" horiz-adv-x="1223" 
d="M531 -20q-104 -1 -187.5 35.5t-137 101.5t-82 151t-28.5 186q0 143 53.5 263t161 195.5t250.5 75.5q171 0 308 -128l28 108h126v-968h-126l-34 132q-81 -73 -160 -112.5t-172 -39.5zM531 118q90 0 175 50.5t149 128.5v415q-121 138 -294 138q-144 0 -225 -130
q-72 -114 -72 -266q0 -138 62 -230q69 -106 205 -106z" />
    <glyph glyph-name="CR" horiz-adv-x="508" 
 />
    </font>
</defs>
</svg>
